<?xml version="1.0" encoding="utf-8"?>
<!-- Generator: Adobe Illustrator 18.0.0, SVG Export Plug-In . SVG Version: 6.00 Build 0)  -->
<!DOCTYPE svg PUBLIC "-//W3C//DTD SVG 1.1//EN" "http://www.w3.org/Graphics/SVG/1.1/DTD/svg11.dtd">
<svg version="1.1" id="Layer_1" xmlns="http://www.w3.org/2000/svg" xmlns:xlink="http://www.w3.org/1999/xlink" x="0px" y="0px"
	 viewBox="999.4 990.4 150 150" enable-background="new 999.4 990.4 150 150" xml:space="preserve">
<g>
	<path fill="#5CA2E9" d="M1042.6,1113.5l3.8-8.2c0.5-1.1,1.6-1.8,2.7-1.8h56c1.2,0,2.2,0.7,2.7,1.8l3.8,8.3c0.7,1.5,2.5,2.2,4,1.5
		l0.4-0.2c1.5-0.7,2.2-2.5,1.5-4l-5.5-12c-0.5-1.1-1.6-1.8-2.7-1.8h-62.2c-1.1,0-2.1-0.6-2.6-1.6l-10.8-19.7c-0.8-1.5-2.6-2-4.1-1.2
		l-0.2,0.1c-1.4,0.8-2,2.6-1.2,4.1l11.9,22.3c0.4,0.8,0.5,1.8,0.1,2.7l-3.3,7.1c-0.7,1.5,0,3.3,1.5,4l0.2,0.1
		C1040.1,1115.7,1041.9,1115,1042.6,1113.5z"/>
	<circle fill="#FEC60E" cx="1115.8" cy="1035.3" r="10.6"/>
	<path fill="#FEC60E" d="M1123.8,1046.5l3.2-3.2c0.4-0.4,1-0.4,1.4,0l3,3c0.4,0.4,0.4,1,0,1.4l-3.2,3.2c-0.4,0.4-1,0.4-1.4,0l-3-3
		C1123.4,1047.5,1123.4,1046.9,1123.8,1046.5z"/>
	<path fill="#FEC60E" d="M1100.3,1023l3.2-3.2c0.4-0.4,1-0.4,1.4,0l2.9,2.9c0.4,0.4,0.4,1,0,1.4l-3.2,3.2c-0.4,0.4-1,0.4-1.4,0
		l-2.9-2.9C1099.9,1024,1099.9,1023.4,1100.3,1023z"/>
	<path fill="#FEC60E" d="M1100.3,1046.2l3-3c0.4-0.4,1-0.4,1.4,0l3.2,3.2c0.4,0.4,0.4,1,0,1.4l-3,3c-0.4,0.4-1,0.4-1.4,0l-3.2-3.2
		C1099.9,1047.3,1099.9,1046.6,1100.3,1046.2z"/>
	<path fill="#FEC60E" d="M1123.7,1022.8l3-3c0.4-0.4,1-0.4,1.4,0l3.2,3.2c0.4,0.4,0.4,1,0,1.4l-3,3c-0.4,0.4-1,0.4-1.4,0l-3.2-3.2
		C1123.3,1023.8,1123.3,1023.2,1123.7,1022.8z"/>
	<path fill="#FEC60E" d="M1113.6,1048.8h4.5c0.6,0,1,0.4,1,1v4.3c0,0.6-0.4,1-1,1h-4.5c-0.6,0-1-0.4-1-1v-4.3
		C1112.6,1049.2,1113,1048.8,1113.6,1048.8z"/>
	<path fill="#FEC60E" d="M1113.6,1015.6h4.5c0.6,0,1,0.4,1,1v4.3c0,0.6-0.4,1-1,1h-4.5c-0.6,0-1-0.4-1-1v-4.3
		C1112.6,1016,1113,1015.6,1113.6,1015.6z"/>
	<path fill="#FEC60E" d="M1097,1032.1h4.3c0.6,0,1,0.4,1,1v4.5c0,0.6-0.4,1-1,1h-4.3c-0.6,0-1-0.4-1-1v-4.5
		C1096,1032.5,1096.5,1032.1,1097,1032.1z"/>
	<path fill="#FEC60E" d="M1130.3,1032.1h4.3c0.6,0,1,0.4,1,1v4.5c0,0.6-0.4,1-1,1h-4.3c-0.6,0-1-0.4-1-1v-4.5
		C1129.3,1032.5,1129.7,1032.1,1130.3,1032.1z"/>
	<path fill="#5CA2E9" d="M1071.9,1030.4c-0.2,0-0.4-0.2-0.6-0.2c-18.4-6.1-38.6,1.1-48.8,17.7c-0.8,1.1-0.6,2.5,0.2,3.6
		c0.2,0.9,1.5,1.5,2.8,1.1c0,0,7.6-1.7,15,5.1c0.6,0.6,1.3,0.9,2.1,0.9h0.2c5.5-0.2,10.4,0.6,14.8,1.5l-8.5,27
		c-0.4,1.4,0.3,2.9,1.8,3.4l1,0.3c1.4,0.4,2.8-0.3,3.3-1.7l8.7-27.2c8.4,3.2,12.9,7.6,12.9,7.8c0.8,0.8,1.7,1.1,2.7,0.9
		c9.7-0.9,14.8,4.6,15.2,4.9c0.6,0.8,1.5,1.1,2.5,1.1c0.4,0,0.6,0,0.9-0.2c1.1-0.4,2.1-1.5,2.3-2.8
		C1102.1,1054.5,1090.3,1036.6,1071.9,1030.4z M1041.9,1050.5c-3.8-2.7-7.6-3.8-10.6-4.4c7-7.8,17.3-12.2,27.9-11.8
		C1052.2,1038.4,1046.3,1043.9,1041.9,1050.5z M1076.2,1061c-8-6-16.8-9.5-26.8-9.5c2.8-5.3,8-11.1,15-17.2c3.8-1,6.9,0.2,9.5,3.1
		C1075.9,1046.4,1077,1054.5,1076.2,1061z M1082.5,1064.4c0.6-8-0.9-16.1-4.2-23.4c8.7,5.9,14.4,15.4,15.4,26.2
		C1091.1,1065.7,1087.3,1064.4,1082.5,1064.4z"/>
</g>
</svg>
