<?xml version="1.0" encoding="utf-8"?>
<!-- Generator: Adobe Illustrator 18.0.0, SVG Export Plug-In . SVG Version: 6.00 Build 0)  -->
<!DOCTYPE svg PUBLIC "-//W3C//DTD SVG 1.1//EN" "http://www.w3.org/Graphics/SVG/1.1/DTD/svg11.dtd">
<svg version="1.1" id="Layer_1" xmlns="http://www.w3.org/2000/svg" xmlns:xlink="http://www.w3.org/1999/xlink" x="0px" y="0px"
	 viewBox="999.4 990.4 150 150" enable-background="new 999.4 990.4 150 150" xml:space="preserve">
<g>
	<path fill="#FFFFFF" d="M1074.6,1122.8c-3.7,0-7.2-2.5-10.7-7.6c-0.2-0.3-0.4-0.6-0.6-0.9c-0.4-0.6-0.9-1.3-1.3-2
		c-0.3,0.2-0.7,0.3-1,0.5c-2,1-4.2,2.1-6.4,2.8c-1.3,0.4-2.7,0.7-3.9,0.7c-4.9,0-8.7-3.5-9.5-8.9c-0.4-2.5-0.6-5-0.8-7.6l0,0
		c-2.6-0.2-5.2-0.4-7.9-0.8c-3.3-0.5-5.9-2.2-7.3-4.7c-1.5-2.5-1.7-5.6-0.6-8.8c0.5-1.5,1.2-2.9,1.8-4.3c0.3-0.7,0.6-1.3,0.9-1.9
		c0.1-0.3,0.3-0.6,0.4-0.8c0.1-0.1,0.1-0.2,0.2-0.4c-0.3-0.2-0.6-0.4-1-0.7c-0.4-0.2-0.7-0.5-1.1-0.7c-2.9-2-6.2-4.2-8.1-8.2
		l-0.3-0.6v-4.8l0.3-0.6c1.9-4,5.2-6.3,7.5-7.8c0.3-0.2,0.5-0.4,0.8-0.6c0.5-0.4,1.2-0.8,1.9-1.2c0,0,0,0,0,0c0-0.1-0.1-0.2-0.1-0.3
		c-1.3-2.5-2.4-4.9-3.2-7.2c-1.1-3.1-0.9-6.2,0.6-8.7c1.5-2.5,4.1-4.2,7.4-4.7c2.9-0.5,5.7-0.7,7.9-0.8c0.1-2.7,0.4-5.3,0.8-7.7
		c0.9-5.5,4.5-8.9,9.6-8.9c1.3,0,2.6,0.2,3.9,0.7c1.9,0.6,3.6,1.4,5.2,2.2c0.4,0.2,0.9,0.4,1.3,0.6c0.3,0.1,0.6,0.3,0.9,0.4
		c0.2-0.3,0.4-0.6,0.5-0.8c0.2-0.3,0.4-0.6,0.6-0.9c2-3.1,4.3-6.6,8.5-8.5l0.6-0.3h4.8l0.6,0.3c4,1.9,6.3,5.2,7.8,7.5
		c0.2,0.3,0.4,0.6,0.6,0.9c0.4,0.5,0.8,1.1,1.2,1.8c0,0,0.1,0,0.1,0c2.3-1.2,4.7-2.4,7.4-3.3c1.3-0.4,2.7-0.7,3.9-0.7
		c5,0,8.7,3.4,9.5,8.9c0.4,2.7,0.6,5.4,0.8,7.6c2.5,0.2,5.1,0.4,7.7,0.8c3.4,0.6,6.1,2.2,7.6,4.8c1.5,2.5,1.6,5.7,0.5,9
		c-0.8,2.2-1.8,4.4-3.2,7.1c0,0,0,0,0,0.1c0,0,0,0,0,0c2.4,1.5,4.4,2.9,6.2,4.4c3.5,2.9,4.3,6.1,4.3,8.2c0,2.1-0.7,5.2-4.2,8.1
		c-1.4,1.2-2.9,2.2-4.3,3.2c-0.5,0.4-1,0.7-1.6,1.1c-0.1,0.1-0.2,0.2-0.4,0.3c0.1,0.2,0.2,0.4,0.2,0.5c0.3,0.6,0.5,1.2,0.8,1.7
		c0.7,1.6,1.5,3.2,2.1,4.9c1.2,3.3,1.1,6.5-0.4,9.1c-1.5,2.5-4.2,4.2-7.7,4.8c-2.5,0.4-5.1,0.6-7.5,0.8l0,0
		c-0.1,1.5-0.2,2.9-0.3,4.3l-0.1,0.7c-0.9,10.3-7.2,11.4-9.9,11.4c-2,0-4.3-0.6-6.8-1.7c-0.4-0.2-0.8-0.4-1.2-0.6
		c-1.1-0.5-2.3-1.1-3.5-1.7c-0.4,0.7-0.8,1.3-1.2,1.9c-0.2,0.3-0.4,0.6-0.7,0.9C1081.8,1120.3,1078.3,1122.8,1074.6,1122.8z
		 M1062.4,1105.9c1.2,0,3.3,0.4,4.8,3.1c0.3,0.5,0.7,1.1,1.1,1.7c0.2,0.3,0.5,0.7,0.7,1.1c2.1,3.2,4.1,4.9,5.5,4.9
		c1.5,0,3.4-1.8,5.6-5c0.2-0.4,0.5-0.7,0.7-1.1c0.4-0.6,0.8-1.2,1.2-1.8c1.5-2.6,3.6-3,4.7-3c1,0,2,0.3,3.1,0.9
		c1.1,0.6,2.2,1.1,3.4,1.6c0.4,0.2,0.8,0.4,1.2,0.6c1.6,0.7,3,1.1,4.1,1.1c0.9,0,3.3,0,3.8-5.8l0.1-0.7c0.1-1.6,0.3-3.3,0.4-4.9
		c0.1-2.9,2-4.8,4.9-5l0.7-0.1c2.4-0.2,4.7-0.4,7-0.7c1.2-0.2,2.7-0.6,3.3-1.8c0.7-1.2,0.3-2.7-0.1-3.8c-0.5-1.4-1.2-2.8-1.9-4.3
		c-0.3-0.6-0.6-1.2-0.8-1.8c-0.7-1.6-1.4-3.1-1-4.7c0.4-1.7,1.7-2.6,3.2-3.6c0.5-0.4,1.1-0.8,1.6-1.1c1.4-0.9,2.7-1.8,3.8-2.8
		c0.9-0.8,2-2,2-3.4c0-1.4-1.1-2.6-2.1-3.4c-1.6-1.3-3.4-2.6-5.5-3.9c-3.1-1.9-3.9-4.9-2.2-8.2c1.3-2.4,2.2-4.4,2.9-6.4
		c0.4-1.1,0.7-2.6,0-3.7c-0.7-1.2-2.1-1.6-3.2-1.8c-2.5-0.4-5.1-0.6-7.5-0.8c-3.2-0.2-5.2-2.2-5.4-5.3c-0.1-2.2-0.3-4.9-0.8-7.5
		c-0.4-2.4-1.5-3.7-3.4-3.7c-0.6,0-1.3,0.1-2,0.4c-2.2,0.7-4.4,1.9-6.5,2.9c-1.2,0.6-2.3,0.9-3.3,0.9c-1.5,0-3.5-0.6-5-3.3
		c-0.2-0.4-0.5-0.8-0.8-1.3c-0.3-0.4-0.5-0.8-0.8-1.2c-1.5-2.4-3-3.9-4.7-4.9h-1.9c-2.3,1.3-3.7,3.5-5.4,6c-0.2,0.3-0.4,0.6-0.6,0.9
		c-1.3,2-2.6,3.8-5.1,3.8h0c-1.3,0-2.5-0.6-4.2-1.3c-0.5-0.2-0.9-0.4-1.4-0.7c-1.5-0.7-3-1.4-4.4-1.9c-0.7-0.2-1.4-0.3-2-0.3
		c-1.9,0-3.1,1.2-3.5,3.7c-0.4,2.2-0.6,4.7-0.7,7.2c-0.2,3.4-2.2,5.4-5.6,5.6c-2.1,0.1-4.8,0.3-7.4,0.8c-1,0.2-2.4,0.6-3.1,1.8
		c-0.7,1.2-0.4,2.6-0.1,3.5c0.7,2,1.6,4.1,2.8,6.3c1,1.9,1.2,3.5,0.8,5.1c-0.5,1.5-1.5,2.7-3.2,3.6c-0.3,0.2-0.7,0.5-1.2,0.8
		c-0.3,0.2-0.7,0.5-1.1,0.7c-2.4,1.5-3.9,3-4.9,4.7v1.9c1.2,2.1,3.3,3.5,5.7,5.2c0.4,0.3,0.7,0.5,1.1,0.8c0.4,0.2,0.7,0.5,1,0.6
		c1.3,0.9,2.6,1.8,3,3.5c0.3,1.5-0.2,2.7-1,4.5c-0.1,0.2-0.2,0.5-0.4,0.8c-0.3,0.7-0.6,1.4-0.9,2.1c-0.6,1.3-1.2,2.5-1.6,3.7
		c-0.3,1-0.6,2.4,0.1,3.6c0.7,1.1,2,1.6,3,1.8c2.4,0.4,4.8,0.6,7.3,0.8l0.6,0c3,0.2,4.9,2.1,5.1,5.1c0.2,2.8,0.4,5.3,0.8,7.7
		c0.4,2.4,1.5,3.7,3.4,3.7c0.6,0,1.3-0.1,2-0.4c1.9-0.6,3.7-1.5,5.7-2.5c0.4-0.2,0.7-0.4,1.1-0.5
		C1060.4,1106.1,1061.4,1105.9,1062.4,1105.9z"/>
	<g>
		<path fill="#FEC60E" d="M1055.9,1060h-5.9v4.2h5.2v3.9h-5.2v7.1h-5.6v-19.1h12.1L1055.9,1060z"/>
		<path fill="#FEC60E" d="M1065.7,1068.3h-1v6.8h-5.6v-19.1h7c5.5,0,8.2,1.9,8.2,6.1c0,2.4-1,3.8-3.4,5.2l4.7,7.8h-6.3
			L1065.7,1068.3z M1064.7,1064.6h1.5c1.5,0,2.3-0.8,2.3-2.4c0-1.5-0.9-2.2-2.6-2.2h-1.2V1064.6z"/>
		<path fill="#FEC60E" d="M1089.4,1060h-6.3v3.6h5.5v3.8h-5.5v3.8h6.7v3.9h-12.4v-19.1h12.5L1089.4,1060z"/>
		<path fill="#FEC60E" d="M1105.1,1060h-6.3v3.6h5.5v3.8h-5.5v3.8h6.7v3.9h-12.4v-19.1h12.5L1105.1,1060z"/>
	</g>
</g>
</svg>
