<?xml version="1.0" encoding="utf-8"?>
<!-- Generator: Adobe Illustrator 18.0.0, SVG Export Plug-In . SVG Version: 6.00 Build 0)  -->
<!DOCTYPE svg PUBLIC "-//W3C//DTD SVG 1.1//EN" "http://www.w3.org/Graphics/SVG/1.1/DTD/svg11.dtd">
<svg version="1.1" id="Layer_1" xmlns="http://www.w3.org/2000/svg" xmlns:xlink="http://www.w3.org/1999/xlink" x="0px" y="0px"
	 viewBox="0 0 2560 784" enable-background="new 0 0 2560 784" xml:space="preserve">
<g>
	<path fill-rule="evenodd" clip-rule="evenodd" fill="none" stroke="#63E2C7" stroke-width="3" stroke-miterlimit="10" d="M0,519
		l85.1-20.1l55.4,15l203.9-7.9l27-6.3l52.7-24.4l13.5,0.8l28.4,18.9l141.8,3.9v-20.5l43.2-22.1c0,0,5.4-2.3,13.5-2.4
		c8.1-0.1,52.7,29.2,52.7,29.2l24.3,11.8v-17.3l40.5-7.1l27-2.4h25.7c0,0,16.2-11.7,40.5-2.4c24.3,9.4,80.3,15.4,87.8,16.5
		c7.4,1.1,70.2-2.4,70.2-2.4l0,0c0,0,54.7-12.5,68.9-20.5c14.2-7.9,64.8,14.2,64.8,14.2l75.6,14.2l33.8,1.6l24.3-11.8"/>
	<path fill-rule="evenodd" clip-rule="evenodd" fill="none" stroke="#63E2C7" stroke-width="3" stroke-miterlimit="10" d="
		M1300.2,477.6l376.8-95l150.4-112.2l203.9-7.9l27-6.3l52.7-24.4l13.5,0.8l28.4,18.9l141.8,3.9v-20.5l43.2-22.1
		c0,0,5.4-2.3,13.5-2.4c8.1-0.1,52.7,29.2,52.7,29.2l24.3,11.8v-17.3l40.5-7.1l27-2.4h25.7c0,0,16.1-8.7,38.6-1.5"/>
</g>
<g>
	<path fill-rule="evenodd" clip-rule="evenodd" fill="none" stroke="#6999BB" stroke-width="3" stroke-miterlimit="10" d="M0,577.8
		L105.3,554c0,0,93.2-4.7,116.1-3.9c23,0.8,60.8,21.3,60.8,21.3l95.9-15l118.8-0.8l106.7,25.2l60.8,2.4L798,552.4l64.8-15l25.7-7.1
		l27,20.5l21.6,11.8l33.8-1.6l6.8-19.7l27,3.2l40.5-17.3h37.8l32.4,20.5l8.1-6.3l44.6-15l72.9-2.4l58.1-3.2"/>
	<path fill-rule="evenodd" clip-rule="evenodd" fill="none" stroke="#6999BB" stroke-width="3" stroke-miterlimit="10" d="
		M1298.9,520.9l206.2-49.8c0,0,119.6-43.6,142.5-42.8c23,0.8,60.8,21.3,60.8,21.3l95.9-15l118.8-0.8l106.7,25.2l60.8,2.4l133.7-30.7
		l64.8-15l25.7-7.1l27,20.5l21.6,11.8l33.8-1.6l6.8-19.7l27,3.2l40.5-17.3h37.8l32.4,20.5l8.1-6.3l10.5-3.5"/>
</g>
<g>
	<path fill-rule="evenodd" clip-rule="evenodd" fill="none" stroke="#F9BC00" stroke-width="3" stroke-miterlimit="10" d="M0,640.9
		L175.5,609l218.7-7.9l54,13.4l24.3,13.4l28.4-13.4l31.1,12.6l145.8-10.2l79.7-13.4l8.1,12.6l28.4-12.6l16.2,26l50-4.7l17.6-22.8
		l71.6-5.5l105.3,15l35.1-28.4l50,11.8l114.8-33.9l40.5-26l5.4-3.9"/>
	<path fill-rule="evenodd" clip-rule="evenodd" fill="none" stroke="#F9BC00" stroke-width="3" stroke-miterlimit="10" d="
		M1300.2,531l232.3-32.8l446.5-10.8l143-28.4l24.3,13.4l28.4-13.4l31.1,12.6l145.8-10.2l79.7-13.4l8.1,12.6l28.4-12.6l16.2,26
		l50-4.7l17.6-22.8l8.6-0.7"/>
</g>
</svg>
