<?xml version="1.0" encoding="utf-8"?>
<!-- Generator: Adobe Illustrator 18.0.0, SVG Export Plug-In . SVG Version: 6.00 Build 0)  -->
<!DOCTYPE svg PUBLIC "-//W3C//DTD SVG 1.1//EN" "http://www.w3.org/Graphics/SVG/1.1/DTD/svg11.dtd">
<svg version="1.1" id="Layer_1" xmlns="http://www.w3.org/2000/svg" xmlns:xlink="http://www.w3.org/1999/xlink" x="0px" y="0px"
	 viewBox="999.4 990.4 150 150" enable-background="new 999.4 990.4 150 150" xml:space="preserve">
<g>
	<g>
		<path fill="#5CA2E9" d="M1059.8,1101.2c0.8,0.4,1.8,1,2.8,1.4c3.4,1.4,7.1,2.1,11,2.1h25.6h12.7h2.1c5.6,0,10.1-4.5,10.1-9.9
			c0-1.8-0.6-3.5-1.4-5c3.8-1.4,6.6-5,6.6-9.4c0-2.2-0.7-4.3-2-6c2.8-1.8,4.6-4.9,4.6-8.4c0-2.2-0.7-4.3-2-6
			c2.8-1.8,4.6-4.9,4.6-8.4c0-5.4-4.5-9.9-10.1-9.9h-14.1h-0.7h-13.8c2.7-9.8,2.5-17.3-0.7-22.8c-2.8-4.9-7.1-6-8.1-6.3
			c-0.8-0.3-3.5-0.8-6.1,1.1c-2.8,2-4.2,5.9-4.2,11.6c0,7.4-11.2,14.8-17.7,18.3H1023v56.8c0,6.1,5,11.2,11.2,11.2h25.6V1101.2z
			 M1082.4,1025.6c0-5,1.3-6.6,1.8-7c0.6-0.4,1.4-0.3,1.4-0.3l0.4,0.1c0,0,2.7,0.6,4.5,3.6c1.8,3.1,3.2,9.5-1,21.8l-1.3,3.6h21.4
			h0.7h14.1c2.5,0,4.5,2,4.5,4.3c0,2.4-2,4.3-4.5,4.3h-2.7h-7h-2.5c-1.5,0-2.8,1.3-2.8,2.8c0,1.5,1.3,2.8,2.8,2.8h2.7h7
			c2.5,0,4.5,2,4.5,4.3c0,2.4-2,4.3-4.5,4.3h-2.7h-5.7h-2.7c-1.5,0-2.8,1.3-2.8,2.8c0,1.5,1.3,2.8,2.8,2.8h2.7h5.7
			c2.5,0,4.5,2,4.5,4.3c0,2.4-2,4.3-4.5,4.3h-5.2h-1.8h-2.7c-1.5,0-2.8,1.3-2.8,2.8c0,1.5,1.3,2.8,2.8,2.8h2.7h1.8
			c2.5,0,4.5,2,4.5,4.3s-2,4.3-4.5,4.3h-2.1h-12.7h-25.7c-3.2,0-6.3-0.6-8.9-1.7c-3.4-1.4-4.5-2.7-4.7-3.2c0,0,0-0.1-0.1-0.1v-44.3
			C1064.9,1047.1,1082.4,1037.8,1082.4,1025.6z M1054.2,1106.1h-20c-3.1,0-5.6-2.5-5.6-5.6v-51.2h25.6V1106.1z"/>
	</g>
	<circle fill="#FEC60E" cx="1040.8" cy="1096" r="6"/>
</g>
</svg>
