<?xml version="1.0" encoding="utf-8"?>
<!-- Generator: Adobe Illustrator 18.0.0, SVG Export Plug-In . SVG Version: 6.00 Build 0)  -->
<!DOCTYPE svg PUBLIC "-//W3C//DTD SVG 1.1//EN" "http://www.w3.org/Graphics/SVG/1.1/DTD/svg11.dtd">
<svg version="1.1" id="Layer_1" xmlns="http://www.w3.org/2000/svg" xmlns:xlink="http://www.w3.org/1999/xlink" x="0px" y="0px"
	 viewBox="999.4 990.4 150 150" enable-background="new 999.4 990.4 150 150" xml:space="preserve">
<ellipse fill="#FEC60E" cx="1030.4" cy="1097.7" rx="5.3" ry="5.3"/>
<path fill="#FFFFFF" d="M1047.1,1057v-5h-32.2v49.8c0,5.4,4.4,9.8,9.8,9.8h22.4v-9.2c0,0,0,0,0,0v-6.5c0,0,0,0,0,0L1047.1,1057
	C1047.1,1057,1047.1,1057,1047.1,1057z M1042.2,1106.6h-17.5c-2.7,0-4.9-2.2-4.9-4.9v-45h22.4V1106.6z"/>
<path fill="#FFFFFF" d="M1134.9,1056.9c0.2,2.8-0.8,5.5-2.7,7.5l-25.9,25.9c-3.7,3.8-8.8,5.9-14.1,5.9H1060l-12.9,9.8
	c-1.1,1.1-2.9,1.1-4,0s-1.1-2.9,0-4l13.7-10.5c0.5-0.5,1.2-0.8,2-0.8h33.2c3.8,0,7.5-1.5,10.1-4.2l25.9-25.9c1.5-1.5,1.4-4-0.1-5.5
	c-1.5-1.4-3.9-1.4-5.4,0l-20.3,20.6l-0.1,0c-1.8,1.8-4.2,2.8-6.8,2.8h-19.8c-1.6,0-2.8-1.3-2.8-2.8c0-1.6,1.3-2.8,2.8-2.8h19.8
	c2.1,0,3.8-1.7,3.8-3.8c0-2.1-1.7-3.8-3.8-3.8c0,0,0,0,0,0h-34.2c-3.2,0-6.2,1.3-8.4,3.5l-5.9,4.9c-1.1,1.1-2.9,1.1-4,0
	c-1.1-1.1-1.1-2.9,0-4l5.9-5c3.3-3.3,7.7-5.2,12.4-5.2h34.2c3.8,0,7.3,2.3,8.7,5.9l14.4-14.4c3.7-3.7,9.7-3.7,13.4,0
	C1133.7,1052.5,1134.7,1054.7,1134.9,1056.9L1134.9,1056.9z"/>
<g>
	<path fill="#FFFFFF" d="M1071,1030.5c1.2,1.8,1.8,4.2,1.8,7.4c0,1.9-0.3,3.6-0.9,5.1c-0.6,1.5-1.5,2.7-2.6,3.5
		c-1.1,0.8-2.4,1.3-4,1.3c-1,0-1.9-0.2-2.8-0.6c-0.8-0.4-1.5-1-2.1-1.8l-0.2,1.1c-0.1,0.4-0.4,0.7-0.8,0.7h-3.4
		c-0.4,0-0.8-0.4-0.8-0.8v-24.6c0-0.4,0.3-0.8,0.7-0.8l3.9-0.4c0.5-0.1,0.9,0.3,0.9,0.8v7.1c0,0.7,0.7,1.1,1.3,0.7
		c0.3-0.2,0.6-0.4,0.9-0.6c0.9-0.4,1.8-0.7,2.9-0.7C1068,1027.9,1069.8,1028.7,1071,1030.5z M1067,1037.8c0-2.2-0.3-3.8-0.8-4.6
		c-0.5-0.8-1.3-1.3-2.3-1.3c-1.2,0-2.2,0.7-3,2c-0.1,0.1-0.1,0.3-0.1,0.4v7.3c0,0.2,0,0.3,0.1,0.5c0.3,0.5,0.7,0.8,1.1,1.1
		c0.5,0.3,1.1,0.5,1.6,0.5C1065.9,1043.7,1067,1041.8,1067,1037.8z"/>
	<path fill="#FFFFFF" d="M1091,1029.3c0.9,1,1.4,2.4,1.4,4.2v12.9c0,0.4-0.4,0.8-0.8,0.8h-3.9c-0.4,0-0.8-0.4-0.8-0.8v-11.9
		c0-0.9-0.1-1.6-0.4-2c-0.3-0.4-0.7-0.5-1.3-0.5c-1.1,0-2.1,0.7-3.1,2.2c-0.1,0.1-0.1,0.3-0.1,0.5v11.7c0,0.4-0.4,0.8-0.8,0.8h-3.9
		c-0.4,0-0.8-0.4-0.8-0.8v-17.1c0-0.4,0.4-0.8,0.8-0.8h3.4c0.4,0,0.7,0.3,0.8,0.7l0,0c0.1,0.6,0.8,0.9,1.3,0.5
		c0.5-0.4,1-0.8,1.5-1.1c0.9-0.5,2-0.7,3.1-0.7C1088.8,1027.9,1090.1,1028.3,1091,1029.3z"/>
	<path fill="#FFFFFF" d="M1107,1037.6l5,8.4c0.3,0.5-0.1,1.2-0.7,1.2h-4.3c-0.3,0-0.6-0.2-0.7-0.5l-2.3-4.9c-0.3-0.6-1.2-0.6-1.5,0
		l-2.2,4.9c-0.1,0.3-0.4,0.5-0.7,0.5h-4.1c-0.6,0-1-0.7-0.7-1.2l5-8.2c0.2-0.3,0.2-0.6,0-0.8l-4.4-7.2c-0.3-0.5,0.1-1.2,0.7-1.2h4.3
		c0.3,0,0.6,0.2,0.7,0.5l1.6,3.8c0.3,0.7,1.2,0.6,1.5,0l1.6-3.7c0.1-0.3,0.4-0.5,0.7-0.5h4c0.6,0,1,0.7,0.7,1.2l-4.1,7.1
		C1106.8,1037,1106.8,1037.3,1107,1037.6z"/>
</g>
</svg>
