<?xml version="1.0" encoding="utf-8"?>
<!-- Generator: Adobe Illustrator 18.0.0, SVG Export Plug-In . SVG Version: 6.00 Build 0)  -->
<!DOCTYPE svg PUBLIC "-//W3C//DTD SVG 1.1//EN" "http://www.w3.org/Graphics/SVG/1.1/DTD/svg11.dtd">
<svg version="1.1" id="Layer_1" xmlns="http://www.w3.org/2000/svg" xmlns:xlink="http://www.w3.org/1999/xlink" x="0px" y="0px"
	 viewBox="0 0 2560 608" enable-background="new 0 0 2560 608" xml:space="preserve">
<path fill="none" stroke="#69B0F7" stroke-miterlimit="10" d="M5248.3-647.1c-645-189-1799,241-2560,13v-724h2560V-647.1z"/>
<path fill="#69B0F7" d="M5248.8-645.9c-645.3-189.1-1799.7,241.1-2561,13v-724.3h2561V-645.9z"/>
<path opacity="0.15" fill="#0398F7" d="M4304.3-884.9c-345.4-296-438.9-269.3-838.8,0c-347.5,234-693,113.5-777.7,77.8v174.2
	c761.3,228.1,1915.7-202.1,2561-13v-238.4C5011.3-869.7,4640.6-596.7,4304.3-884.9z"/>
<g opacity="0.15">
	<path fill="#0398F7" d="M4691.6-784.4c-431.1-286.3-547.7-260.5-1046.9,0c-417,217.6-831.8,118.2-956.9,79.6v71.9
		C3318.4-444,4218.7-706.7,4876-695C4814-715,4752.4-744,4691.6-784.4z"/>
	<path fill="#0398F7" d="M5197.7-659.4c17.4,4.1,34.4,8.6,51.1,13.4v-17.8C5231.8-661.9,5214.8-660.5,5197.7-659.4z"/>
</g>
<g opacity="0.15">
	<path fill="#0398F7" d="M4330.8-745.4c-356-286.3-452.4-260.5-864.6,0c-332.2,209.9-662.7,124.8-778.4,83.9v28.5
		c500.6,150,1171.1,15.4,1755.2-40.7C4405.3-692,4367.8-715.6,4330.8-745.4z"/>
	<path fill="#0398F7" d="M5047.1-684.7c71.5,7.9,139,20.4,201.7,38.7V-738C5187.6-727.3,5119.6-706.2,5047.1-684.7z"/>
</g>
<path fill-rule="evenodd" clip-rule="evenodd" fill="none" stroke="#FFFFFF" stroke-width="3" stroke-miterlimit="10" d="
	M2687.3-812.1c129.2,46.8,328.2,103.7,345.9,108.3c490.1,125.9,785-191.5,1868.6-189.2c17.1,0,223.5,4.7,346.4-23.2"/>
<path fill-rule="evenodd" clip-rule="evenodd" fill="none" stroke="#FFFFFF" stroke-width="3" stroke-miterlimit="10" d="
	M2688.3-1072.5c130.1,76.1,325.6,128.1,336.5,130.9c548.8,142.7,1367.1,122.6,1917.9-280.1c6.7-4.9,131-100.7,305.6-61.4"/>
<path fill-rule="evenodd" clip-rule="evenodd" fill="none" stroke="#FFFFFF" stroke-width="3" stroke-miterlimit="10" d="
	M2688.3-1148.4c89.7,115.1,338.2,269.7,360.8,283.5c478.9,292.6,864.4-262.8,1871.5,142.6c7.7,3.1,169.1,58.8,327.7,27.2"/>
<path fill="#69B0F7" d="M2560,607C1897.9,285.8,664.8,837.9,0,485V0c679.8,351.8,1681.9-146.2,2560,118V607z"/>
</svg>
