<?xml version="1.0" encoding="utf-8"?>
<!-- Generator: Adobe Illustrator 18.0.0, SVG Export Plug-In . SVG Version: 6.00 Build 0)  -->
<!DOCTYPE svg PUBLIC "-//W3C//DTD SVG 1.1//EN" "http://www.w3.org/Graphics/SVG/1.1/DTD/svg11.dtd">
<svg version="1.1" id="Layer_1" xmlns="http://www.w3.org/2000/svg" xmlns:xlink="http://www.w3.org/1999/xlink" x="0px" y="0px"
	 viewBox="999.4 990.4 150 150" enable-background="new 999.4 990.4 150 150" xml:space="preserve">
<g>
	<path fill="#FFFFFF" d="M1117.1,1115.9h-85.5c-3.7,0-6.7-3-6.7-6.7v-85.5c0-3.7,3-6.7,6.7-6.7h85.5c3.7,0,6.7,3,6.7,6.7v85.5
		C1123.8,1112.9,1120.8,1115.9,1117.1,1115.9z M1031.6,1023.2c-0.3,0-0.5,0.2-0.5,0.5v85.5c0,0.3,0.2,0.5,0.5,0.5h85.5
		c0.3,0,0.5-0.2,0.5-0.5v-85.5c0-0.3-0.2-0.5-0.5-0.5H1031.6z"/>
	<rect x="1028" y="1036.7" fill="#FFFFFF" width="90.3" height="6.2"/>
	<path fill="#FFFFFF" d="M1041.6,1033h-4c-1.7,0-3.1-1.4-3.1-3.1c0-1.7,1.4-3.1,3.1-3.1h4c1.7,0,3.1,1.4,3.1,3.1
		C1044.7,1031.6,1043.3,1033,1041.6,1033z"/>
	<path fill="#FFFFFF" d="M1054.7,1033h-4c-1.7,0-3.1-1.4-3.1-3.1c0-1.7,1.4-3.1,3.1-3.1h4c1.7,0,3.1,1.4,3.1,3.1
		C1057.8,1031.6,1056.4,1033,1054.7,1033z"/>
	<path fill="#FFFFFF" d="M1067.8,1033h-4c-1.7,0-3.1-1.4-3.1-3.1c0-1.7,1.4-3.1,3.1-3.1h4c1.7,0,3.1,1.4,3.1,3.1
		C1070.9,1031.6,1069.6,1033,1067.8,1033z"/>
	<path fill="#FEC60E" d="M1096.3,1069.2h-16.8v-16.8h2c8.2,0,14.8,6.6,14.8,14.8V1069.2z M1083.6,1065.1h8.5
		c-0.8-4.3-4.2-7.7-8.5-8.5V1065.1z"/>
	<path fill="#FEC60E" d="M1071.6,1096.6c-10.7,0-19.5-8.7-19.5-19.5c0-5.2,2-10,5.6-13.7c3.6-3.7,8.5-5.7,13.6-5.8l2.7,0v16.8h17
		v2.7C1091.1,1087.9,1082.4,1096.6,1071.6,1096.6z M1068.7,1063.3c-6.4,1.3-11.2,7.1-11.2,13.8c0,7.8,6.3,14.1,14.1,14.1
		c6.9,0,12.6-4.9,13.9-11.4h-16.7V1063.3z"/>
</g>
</svg>
