<?xml version="1.0" encoding="utf-8"?>
<!-- Generator: Adobe Illustrator 18.0.0, SVG Export Plug-In . SVG Version: 6.00 Build 0)  -->
<!DOCTYPE svg PUBLIC "-//W3C//DTD SVG 1.1//EN" "http://www.w3.org/Graphics/SVG/1.1/DTD/svg11.dtd">
<svg version="1.1" id="Layer_1" xmlns="http://www.w3.org/2000/svg" xmlns:xlink="http://www.w3.org/1999/xlink" x="0px" y="0px"
	 viewBox="999.4 990.4 150 150" enable-background="new 999.4 990.4 150 150" xml:space="preserve">
<g>
	<path fill="#5CA2E9" d="M1123.4,1040.9l-3.6,3.6c17.1,22.7,12.5,55-10.3,72.1c-7.9,6-17.5,9.5-27.4,10.2c-1.2,0.1-2.3,0.1-3.5,0.1
		c-14.6,0-28.5-6.1-38.2-17c-1.2-1.3-1-3.4,0.3-4.5c1.3-1.1,3.2-1,4.4,0.2c16.7,18.5,45.2,19.9,63.7,3.2c18.1-16.3,19.9-44,4.2-62.6
		c-1.1-1.3-1-3.2,0.2-4.3l5.6-5.6c0.8-0.9,0.8-2.4-0.2-3.2c-0.9-0.8-2.2-0.8-3,0l-5.8,5.8c-1.1,1.1-2.9,1.2-4.2,0.3
		c-6.4-4.8-14-7.8-21.9-8.7c-1.6-0.2-2.8-1.5-2.8-3.2v-10.3c0-1.8,1.4-3.2,3.1-3.2c0,0,0,0,0.1,0h2.9c1.2,0,2.3-1,2.3-2.3
		c0-1.2-1-2.3-2.3-2.3h-16.8c-1.2,0-2.3,1-2.3,2.3c0,1.2,1,2.3,2.3,2.3h2.9c1.8,0,3.2,1.4,3.2,3.2v10.3c0,1.6-1.2,3-2.8,3.2
		c-10.3,1.2-19.9,5.9-27.2,13.3c-1.2,1.3-3.3,1.3-4.5,0c-1.3-1.2-1.3-3.3,0-4.5c7.6-7.8,17.5-12.9,28.2-14.8v-4.4
		c-4.8-0.4-8.3-4.6-7.8-9.4c0.4-4.3,3.8-7.6,8.1-7.8h16.8c4.8,0.3,8.4,4.4,8.1,9.1c-0.3,4.3-3.6,7.7-7.8,8.1v4.3
		c7.1,1.2,13.9,3.9,20,7.9l3.8-3.8c3.4-3.4,8.8-3.4,12.2,0C1126.7,1032.1,1126.7,1037.5,1123.4,1040.9L1123.4,1040.9L1123.4,1040.9z
		"/>
	<path fill="#FEC60E" d="M1018.7,1059c0,1.8,1.4,3.2,3.2,3.2h22.2c1.8,0,3.2-1.4,3.2-3.2s-1.4-3.2-3.2-3.2h-22.2
		C1020.1,1055.8,1018.7,1057.3,1018.7,1059L1018.7,1059z"/>
	<path fill="#FEC60E" d="M1055,1074.5c0-1.8-1.4-3.2-3.2-3.2h-22.2c-1.8,0-3.2,1.4-3.2,3.2c0,1.8,1.4,3.2,3.2,3.2h22.2
		C1053.5,1077.7,1055,1076.3,1055,1074.5z"/>
	<path fill="#FEC60E" d="M1021.9,1093.2h22.2c1.8,0,3.2-1.4,3.2-3.2s-1.4-3.2-3.2-3.2h-22.2c-1.8,0-3.2,1.4-3.2,3.2
		S1020.1,1093.2,1021.9,1093.2z"/>
	<path fill="#5CA2E9" d="M1096.4,1057.7c-1.2-1.2-3.3-1.2-4.5,0l-8.2,8.2c-3.1-1.7-6.9-1.7-10.1,0c-5.3,2.8-7.3,9.3-4.5,14.6
		c2.8,5.3,9.3,7.3,14.6,4.5c5.3-2.8,7.3-9.3,4.5-14.6l8.2-8.2C1097.7,1060.9,1097.7,1058.9,1096.4,1057.7z M1078.7,1079.8
		c-2.4,0-4.4-2-4.4-4.4c0-2.4,2-4.4,4.4-4.4s4.4,2,4.4,4.4C1083.1,1077.8,1081.1,1079.8,1078.7,1079.8z"/>
	<path fill="#5CA2E9" d="M1078.7,1113.4c21,0,38-17,38.1-37.9c0-21-17-38-37.9-38.1c-10.1,0-19.8,4-26.9,11.1
		c-1.2,1.2-1.2,3.3,0,4.5s3.3,1.2,4.5,0c12.3-12.4,32.4-12.4,44.7,0c12.4,12.3,12.4,32.4,0,44.7c-12.3,12.4-32.4,12.4-44.7,0
		c0,0,0,0,0,0c-1.2-1.2-3.3-1.2-4.5,0s-1.2,3.3,0,4.5C1059,1109.4,1068.6,1113.4,1078.7,1113.4z"/>
</g>
</svg>
