<?xml version="1.0" encoding="utf-8"?>
<!-- Generator: Adobe Illustrator 18.0.0, SVG Export Plug-In . SVG Version: 6.00 Build 0)  -->
<!DOCTYPE svg PUBLIC "-//W3C//DTD SVG 1.1//EN" "http://www.w3.org/Graphics/SVG/1.1/DTD/svg11.dtd">
<svg version="1.1" id="Layer_1" xmlns="http://www.w3.org/2000/svg" xmlns:xlink="http://www.w3.org/1999/xlink" x="0px" y="0px"
	 viewBox="0 0 2560 789.7" enable-background="new 0 0 2560 789.7" xml:space="preserve">
<linearGradient id="SVGID_1_" gradientUnits="userSpaceOnUse" x1="1280" y1="789.7061" x2="1280" y2="-2.3315">
	<stop  offset="0" style="stop-color:#FFFFFF"/>
	<stop  offset="1" style="stop-color:#69B0F7"/>
</linearGradient>
<path opacity="0.15" fill="url(#SVGID_1_)" d="M2559.1-0.6v-1.8H1.7v0.9H0.9v791.1h1v-13.5h31.4v13.5h1v-13.5h31.4v13.5h1v-13.5H98
	v13.5h1v-13.5h31.4v13.5h1v-13.5h31.4v13.5h1v-13.5h31.4v13.5h1v-13.5h31.4v13.5h1v-13.5h31.4v13.5h1v-13.5h31.4v13.5h1v-13.5h31.4
	v13.5h1v-13.5h31.4v13.5h1v-13.5h31.4v13.5h1v-13.5h31.4v13.5h1v-13.5H454v13.5h1v-13.5h31.4v13.5h1v-13.5h31.4v13.5h1v-13.5h31.4
	v13.5h1v-13.5h31.4v13.5h1v-13.5h31.4v13.5h1v-13.5h31.4v13.5h1v-13.5h31.4v13.5h1v-13.5h31.4v13.5h1v-13.5h31.4v13.5h1v-13.5h31.4
	v13.5h1v-13.5H810v13.5h1v-13.5h31.4v13.5h1v-13.5h31.4v13.5h1v-13.5h31.4v13.5h1v-13.5h31.4v13.5h1v-13.5h31.4v13.5h1v-13.5h31.4
	v13.5h1v-13.5h31.4v13.5h1v-13.5h31.4v13.5h1v-13.5h31.4v13.5h1v-13.5h31.4v13.5h1v-13.5h31.4v13.5h1v-13.5h31.4v13.5h1v-13.5h31.4
	v13.5h1v-13.5h31.4v13.5h1v-13.5h31.4v13.5h1v-13.5h31.4v13.5h1v-13.5h31.4v13.5h1v-13.5h31.4v13.5h1v-13.5h31.4v13.5h1v-13.5h31.4
	v13.5h1v-13.5h31.4v13.5h1v-13.5h31.4v13.5h1v-13.5h31.4v13.5h1v-13.5h31.4v13.5h1v-13.5h31.4v13.5h1v-13.5h31.4v13.5h1v-13.5h31.4
	v13.5h1v-13.5h31.4v13.5h1v-13.5h31.4v13.5h1v-13.5h31.4v13.5h1v-13.5h31.4v13.5h1v-13.5h31.4v13.5h1v-13.5h31.4v13.5h1v-13.5h31.4
	v13.5h1v-13.5h31.4v13.5h1v-13.5h31.4v13.5h1v-13.5h31.4v13.5h1v-13.5h31.4v13.5h1v-13.5h31.4v13.5h1v-13.5h31.4v13.5h1v-13.5h31.4
	v13.5h1v-13.5h31.4v13.5h1v-13.5h31.4v13.5h1v-13.5h31.4v13.5h1v-13.5h31.4v13.5h1v-13.5h31.4v13.5h1v-13.5h31.4v13.5h1v-13.5h31.4
	v13.5h1v-13.5h31.4v13.5h1v-13.5h31.4v13.5h1v-13.5h31.4v13.5h1v-13.5h31.4v13.5h1v-13.5h31.4v13.5h1v-13.5h31.4v13.5h1v-13.5h0.5
	v-1.8h-0.5v-30.6h0.5V742h-0.5v-30.6h0.5v-1.8h-0.5v-30.6h0.5v-1.8h-0.5v-30.6h0.5v-1.8h-0.5v-30.6h0.5v-1.8h-0.5V582h0.5v-1.8h-0.5
	v-30.6h0.5v-1.8h-0.5v-30.6h0.5v-1.8h-0.5v-30.6h0.5v-1.8h-0.5v-30.6h0.5v-1.8h-0.5v-30.6h0.5v-1.8h-0.5v-30.6h0.5V386h-0.5v-30.6
	h0.5v-1.8h-0.5v-30.6h0.5v-1.8h-0.5v-30.6h0.5v-1.8h-0.5v-30.6h0.5v-1.8h-0.5V226h0.5v-1.8h-0.5v-30.6h0.5v-1.8h-0.5v-30.6h0.5v-1.8
	h-0.5v-30.6h0.5v-1.8h-0.5V96.5h0.5v-1.8h-0.5V64.2h0.5v-1.8h-0.5V31.8h0.5V30h-0.5V-0.6H2559.1z M390.2,355.4h31.4V386h-31.4V355.4
	z M389.2,386h-31.4v-30.6h31.4V386z M422.6,355.4H454V386h-31.4V355.4z M455,355.4h31.4V386H455V355.4z M487.3,355.4h31.4V386h-31.4
	V355.4z M519.7,355.4h31.4V386h-31.4V355.4z M552.1,355.4h31.4V386h-31.4V355.4z M584.4,355.4h31.4V386h-31.4V355.4z M616.8,355.4
	h31.4V386h-31.4V355.4z M649.1,355.4h31.4V386h-31.4V355.4z M681.5,355.4h31.4V386h-31.4V355.4z M713.9,355.4h31.4V386h-31.4V355.4z
	 M746.2,355.4h31.4V386h-31.4V355.4z M778.6,355.4H810V386h-31.4V355.4z M811,355.4h31.4V386H811V355.4z M843.3,355.4h31.4V386
	h-31.4V355.4z M875.7,355.4h31.4V386h-31.4V355.4z M908.1,355.4h31.4V386h-31.4V355.4z M940.4,355.4h31.4V386h-31.4V355.4z
	 M972.8,355.4h31.4V386h-31.4V355.4z M1005.1,355.4h31.4V386h-31.4V355.4z M1037.5,355.4h31.4V386h-31.4V355.4z M1069.9,355.4h31.4
	V386h-31.4V355.4z M1102.2,355.4h31.4V386h-31.4V355.4z M1134.6,355.4h31.4V386h-31.4V355.4z M1167,355.4h31.4V386H1167V355.4z
	 M1199.3,355.4h31.4V386h-31.4V355.4z M1231.7,355.4h31.4V386h-31.4V355.4z M1264.1,355.4h31.4V386h-31.4V355.4z M1296.4,355.4h31.4
	V386h-31.4V355.4z M1328.8,355.4h31.4V386h-31.4V355.4z M1361.1,355.4h31.4V386h-31.4V355.4z M1393.5,355.4h31.4V386h-31.4V355.4z
	 M1425.9,355.4h31.4V386h-31.4V355.4z M1458.2,355.4h31.4V386h-31.4V355.4z M1490.6,355.4h31.4V386h-31.4V355.4z M1523,355.4h31.4
	V386H1523V355.4z M1555.3,355.4h31.4V386h-31.4V355.4z M1587.7,355.4h31.4V386h-31.4V355.4z M1620.1,355.4h31.4V386h-31.4V355.4z
	 M1652.4,355.4h31.4V386h-31.4V355.4z M1684.8,355.4h31.4V386h-31.4V355.4z M1717.2,355.4h31.4V386h-31.4V355.4z M1749.5,355.4h31.4
	V386h-31.4V355.4z M1781.9,355.4h31.4V386h-31.4V355.4z M1814.2,355.4h31.4V386h-31.4V355.4z M1846.6,355.4h31.4V386h-31.4V355.4z
	 M1879,355.4h31.4V386H1879V355.4z M1911.3,355.4h31.4V386h-31.4V355.4z M1943.7,355.4h31.4V386h-31.4V355.4z M1976.1,355.4h31.4
	V386h-31.4V355.4z M2008.4,355.4h31.4V386h-31.4V355.4z M2040.8,355.4h31.4V386h-31.4V355.4z M2073.2,355.4h31.4V386h-31.4V355.4z
	 M2105.5,355.4h31.4V386h-31.4V355.4z M2137.9,355.4h31.4V386h-31.4V355.4z M2137.9,353.7v-30.6h31.4v30.6H2137.9z M2136.9,353.7
	h-31.4v-30.6h31.4V353.7z M2104.5,353.7h-31.4v-30.6h31.4V353.7z M2072.2,353.7h-31.4v-30.6h31.4V353.7z M2039.8,353.7h-31.4v-30.6
	h31.4V353.7z M2007.4,353.7h-31.4v-30.6h31.4V353.7z M1975.1,353.7h-31.4v-30.6h31.4V353.7z M1942.7,353.7h-31.4v-30.6h31.4V353.7z
	 M1910.3,353.7H1879v-30.6h31.4V353.7z M1878,353.7h-31.4v-30.6h31.4V353.7z M1845.6,353.7h-31.4v-30.6h31.4V353.7z M1813.3,353.7
	h-31.4v-30.6h31.4V353.7z M1780.9,353.7h-31.4v-30.6h31.4V353.7z M1748.5,353.7h-31.4v-30.6h31.4V353.7z M1716.2,353.7h-31.4v-30.6
	h31.4V353.7z M1683.8,353.7h-31.4v-30.6h31.4V353.7z M1651.4,353.7h-31.4v-30.6h31.4V353.7z M1619.1,353.7h-31.4v-30.6h31.4V353.7z
	 M1586.7,353.7h-31.4v-30.6h31.4V353.7z M1554.3,353.7H1523v-30.6h31.4V353.7z M1522,353.7h-31.4v-30.6h31.4V353.7z M1489.6,353.7
	h-31.4v-30.6h31.4V353.7z M1457.3,353.7h-31.4v-30.6h31.4V353.7z M1424.9,353.7h-31.4v-30.6h31.4V353.7z M1392.5,353.7h-31.4v-30.6
	h31.4V353.7z M1360.2,353.7h-31.4v-30.6h31.4V353.7z M1327.8,353.7h-31.4v-30.6h31.4V353.7z M1295.4,353.7h-31.4v-30.6h31.4V353.7z
	 M1263.1,353.7h-31.4v-30.6h31.4V353.7z M1230.7,353.7h-31.4v-30.6h31.4V353.7z M1198.3,353.7H1167v-30.6h31.4V353.7z M1166,353.7
	h-31.4v-30.6h31.4V353.7z M1133.6,353.7h-31.4v-30.6h31.4V353.7z M1101.3,353.7h-31.4v-30.6h31.4V353.7z M1068.9,353.7h-31.4v-30.6
	h31.4V353.7z M1036.5,353.7h-31.4v-30.6h31.4V353.7z M1004.2,353.7h-31.4v-30.6h31.4V353.7z M971.8,353.7h-31.4v-30.6h31.4V353.7z
	 M939.4,353.7h-31.4v-30.6h31.4V353.7z M907.1,353.7h-31.4v-30.6h31.4V353.7z M874.7,353.7h-31.4v-30.6h31.4V353.7z M842.3,353.7
	H811v-30.6h31.4V353.7z M810,353.7h-31.4v-30.6H810V353.7z M777.6,353.7h-31.4v-30.6h31.4V353.7z M745.2,353.7h-31.4v-30.6h31.4
	V353.7z M712.9,353.7h-31.4v-30.6h31.4V353.7z M680.5,353.7h-31.4v-30.6h31.4V353.7z M648.2,353.7h-31.4v-30.6h31.4V353.7z
	 M615.8,353.7h-31.4v-30.6h31.4V353.7z M583.4,353.7h-31.4v-30.6h31.4V353.7z M551.1,353.7h-31.4v-30.6h31.4V353.7z M518.7,353.7
	h-31.4v-30.6h31.4V353.7z M486.3,353.7H455v-30.6h31.4V353.7z M454,353.7h-31.4v-30.6H454V353.7z M421.6,353.7h-31.4v-30.6h31.4
	V353.7z M389.2,353.7h-31.4v-30.6h31.4V353.7z M356.9,353.7h-31.4v-30.6h31.4V353.7z M356.9,355.4V386h-31.4v-30.6H356.9z
	 M356.9,387.8v30.6h-31.4v-30.6H356.9z M357.9,387.8h31.4v30.6h-31.4V387.8z M390.2,387.8h31.4v30.6h-31.4V387.8z M422.6,387.8H454
	v30.6h-31.4V387.8z M455,387.8h31.4v30.6H455V387.8z M487.3,387.8h31.4v30.6h-31.4V387.8z M519.7,387.8h31.4v30.6h-31.4V387.8z
	 M552.1,387.8h31.4v30.6h-31.4V387.8z M584.4,387.8h31.4v30.6h-31.4V387.8z M616.8,387.8h31.4v30.6h-31.4V387.8z M649.1,387.8h31.4
	v30.6h-31.4V387.8z M681.5,387.8h31.4v30.6h-31.4V387.8z M713.9,387.8h31.4v30.6h-31.4V387.8z M746.2,387.8h31.4v30.6h-31.4V387.8z
	 M778.6,387.8H810v30.6h-31.4V387.8z M811,387.8h31.4v30.6H811V387.8z M843.3,387.8h31.4v30.6h-31.4V387.8z M875.7,387.8h31.4v30.6
	h-31.4V387.8z M908.1,387.8h31.4v30.6h-31.4V387.8z M940.4,387.8h31.4v30.6h-31.4V387.8z M972.8,387.8h31.4v30.6h-31.4V387.8z
	 M1005.1,387.8h31.4v30.6h-31.4V387.8z M1037.5,387.8h31.4v30.6h-31.4V387.8z M1069.9,387.8h31.4v30.6h-31.4V387.8z M1102.2,387.8
	h31.4v30.6h-31.4V387.8z M1134.6,387.8h31.4v30.6h-31.4V387.8z M1167,387.8h31.4v30.6H1167V387.8z M1199.3,387.8h31.4v30.6h-31.4
	V387.8z M1231.7,387.8h31.4v30.6h-31.4V387.8z M1264.1,387.8h31.4v30.6h-31.4V387.8z M1296.4,387.8h31.4v30.6h-31.4V387.8z
	 M1328.8,387.8h31.4v30.6h-31.4V387.8z M1361.1,387.8h31.4v30.6h-31.4V387.8z M1393.5,387.8h31.4v30.6h-31.4V387.8z M1425.9,387.8
	h31.4v30.6h-31.4V387.8z M1458.2,387.8h31.4v30.6h-31.4V387.8z M1490.6,387.8h31.4v30.6h-31.4V387.8z M1523,387.8h31.4v30.6H1523
	V387.8z M1555.3,387.8h31.4v30.6h-31.4V387.8z M1587.7,387.8h31.4v30.6h-31.4V387.8z M1620.1,387.8h31.4v30.6h-31.4V387.8z
	 M1652.4,387.8h31.4v30.6h-31.4V387.8z M1684.8,387.8h31.4v30.6h-31.4V387.8z M1717.2,387.8h31.4v30.6h-31.4V387.8z M1749.5,387.8
	h31.4v30.6h-31.4V387.8z M1781.9,387.8h31.4v30.6h-31.4V387.8z M1814.2,387.8h31.4v30.6h-31.4V387.8z M1846.6,387.8h31.4v30.6h-31.4
	V387.8z M1879,387.8h31.4v30.6H1879V387.8z M1911.3,387.8h31.4v30.6h-31.4V387.8z M1943.7,387.8h31.4v30.6h-31.4V387.8z
	 M1976.1,387.8h31.4v30.6h-31.4V387.8z M2008.4,387.8h31.4v30.6h-31.4V387.8z M2040.8,387.8h31.4v30.6h-31.4V387.8z M2073.2,387.8
	h31.4v30.6h-31.4V387.8z M2105.5,387.8h31.4v30.6h-31.4V387.8z M2137.9,387.8h31.4v30.6h-31.4V387.8z M2170.2,387.8h31.4v30.6h-31.4
	V387.8z M2170.2,386v-30.6h31.4V386H2170.2z M2170.2,353.7v-30.6h31.4v30.6H2170.2z M2170.2,321.3v-30.6h31.4v30.6H2170.2z
	 M2169.3,321.3h-31.4v-30.6h31.4V321.3z M2136.9,321.3h-31.4v-30.6h31.4V321.3z M2104.5,321.3h-31.4v-30.6h31.4V321.3z
	 M2072.2,321.3h-31.4v-30.6h31.4V321.3z M2039.8,321.3h-31.4v-30.6h31.4V321.3z M2007.4,321.3h-31.4v-30.6h31.4V321.3z
	 M1975.1,321.3h-31.4v-30.6h31.4V321.3z M1942.7,321.3h-31.4v-30.6h31.4V321.3z M1910.3,321.3H1879v-30.6h31.4V321.3z M1878,321.3
	h-31.4v-30.6h31.4V321.3z M1845.6,321.3h-31.4v-30.6h31.4V321.3z M1813.3,321.3h-31.4v-30.6h31.4V321.3z M1780.9,321.3h-31.4v-30.6
	h31.4V321.3z M1748.5,321.3h-31.4v-30.6h31.4V321.3z M1716.2,321.3h-31.4v-30.6h31.4V321.3z M1683.8,321.3h-31.4v-30.6h31.4V321.3z
	 M1651.4,321.3h-31.4v-30.6h31.4V321.3z M1619.1,321.3h-31.4v-30.6h31.4V321.3z M1586.7,321.3h-31.4v-30.6h31.4V321.3z
	 M1554.3,321.3H1523v-30.6h31.4V321.3z M1522,321.3h-31.4v-30.6h31.4V321.3z M1489.6,321.3h-31.4v-30.6h31.4V321.3z M1457.3,321.3
	h-31.4v-30.6h31.4V321.3z M1424.9,321.3h-31.4v-30.6h31.4V321.3z M1392.5,321.3h-31.4v-30.6h31.4V321.3z M1360.2,321.3h-31.4v-30.6
	h31.4V321.3z M1327.8,321.3h-31.4v-30.6h31.4V321.3z M1295.4,321.3h-31.4v-30.6h31.4V321.3z M1263.1,321.3h-31.4v-30.6h31.4V321.3z
	 M1230.7,321.3h-31.4v-30.6h31.4V321.3z M1198.3,321.3H1167v-30.6h31.4V321.3z M1166,321.3h-31.4v-30.6h31.4V321.3z M1133.6,321.3
	h-31.4v-30.6h31.4V321.3z M1101.3,321.3h-31.4v-30.6h31.4V321.3z M1068.9,321.3h-31.4v-30.6h31.4V321.3z M1036.5,321.3h-31.4v-30.6
	h31.4V321.3z M1004.2,321.3h-31.4v-30.6h31.4V321.3z M971.8,321.3h-31.4v-30.6h31.4V321.3z M939.4,321.3h-31.4v-30.6h31.4V321.3z
	 M907.1,321.3h-31.4v-30.6h31.4V321.3z M874.7,321.3h-31.4v-30.6h31.4V321.3z M842.3,321.3H811v-30.6h31.4V321.3z M810,321.3h-31.4
	v-30.6H810V321.3z M777.6,321.3h-31.4v-30.6h31.4V321.3z M745.2,321.3h-31.4v-30.6h31.4V321.3z M712.9,321.3h-31.4v-30.6h31.4V321.3
	z M680.5,321.3h-31.4v-30.6h31.4V321.3z M648.2,321.3h-31.4v-30.6h31.4V321.3z M615.8,321.3h-31.4v-30.6h31.4V321.3z M583.4,321.3
	h-31.4v-30.6h31.4V321.3z M551.1,321.3h-31.4v-30.6h31.4V321.3z M518.7,321.3h-31.4v-30.6h31.4V321.3z M486.3,321.3H455v-30.6h31.4
	V321.3z M454,321.3h-31.4v-30.6H454V321.3z M421.6,321.3h-31.4v-30.6h31.4V321.3z M389.2,321.3h-31.4v-30.6h31.4V321.3z
	 M356.9,321.3h-31.4v-30.6h31.4V321.3z M324.5,321.3h-31.4v-30.6h31.4V321.3z M324.5,323.1v30.6h-31.4v-30.6H324.5z M324.5,355.4
	V386h-31.4v-30.6H324.5z M324.5,387.8v30.6h-31.4v-30.6H324.5z M324.5,420.2v30.6h-31.4v-30.6H324.5z M325.5,420.2h31.4v30.6h-31.4
	V420.2z M357.9,420.2h31.4v30.6h-31.4V420.2z M390.2,420.2h31.4v30.6h-31.4V420.2z M422.6,420.2H454v30.6h-31.4V420.2z M455,420.2
	h31.4v30.6H455V420.2z M487.3,420.2h31.4v30.6h-31.4V420.2z M519.7,420.2h31.4v30.6h-31.4V420.2z M552.1,420.2h31.4v30.6h-31.4
	V420.2z M584.4,420.2h31.4v30.6h-31.4V420.2z M616.8,420.2h31.4v30.6h-31.4V420.2z M649.1,420.2h31.4v30.6h-31.4V420.2z
	 M681.5,420.2h31.4v30.6h-31.4V420.2z M713.9,420.2h31.4v30.6h-31.4V420.2z M746.2,420.2h31.4v30.6h-31.4V420.2z M778.6,420.2H810
	v30.6h-31.4V420.2z M811,420.2h31.4v30.6H811V420.2z M843.3,420.2h31.4v30.6h-31.4V420.2z M875.7,420.2h31.4v30.6h-31.4V420.2z
	 M908.1,420.2h31.4v30.6h-31.4V420.2z M940.4,420.2h31.4v30.6h-31.4V420.2z M972.8,420.2h31.4v30.6h-31.4V420.2z M1005.1,420.2h31.4
	v30.6h-31.4V420.2z M1037.5,420.2h31.4v30.6h-31.4V420.2z M1069.9,420.2h31.4v30.6h-31.4V420.2z M1102.2,420.2h31.4v30.6h-31.4
	V420.2z M1134.6,420.2h31.4v30.6h-31.4V420.2z M1167,420.2h31.4v30.6H1167V420.2z M1199.3,420.2h31.4v30.6h-31.4V420.2z
	 M1231.7,420.2h31.4v30.6h-31.4V420.2z M1264.1,420.2h31.4v30.6h-31.4V420.2z M1296.4,420.2h31.4v30.6h-31.4V420.2z M1328.8,420.2
	h31.4v30.6h-31.4V420.2z M1361.1,420.2h31.4v30.6h-31.4V420.2z M1393.5,420.2h31.4v30.6h-31.4V420.2z M1425.9,420.2h31.4v30.6h-31.4
	V420.2z M1458.2,420.2h31.4v30.6h-31.4V420.2z M1490.6,420.2h31.4v30.6h-31.4V420.2z M1523,420.2h31.4v30.6H1523V420.2z
	 M1555.3,420.2h31.4v30.6h-31.4V420.2z M1587.7,420.2h31.4v30.6h-31.4V420.2z M1620.1,420.2h31.4v30.6h-31.4V420.2z M1652.4,420.2
	h31.4v30.6h-31.4V420.2z M1684.8,420.2h31.4v30.6h-31.4V420.2z M1717.2,420.2h31.4v30.6h-31.4V420.2z M1749.5,420.2h31.4v30.6h-31.4
	V420.2z M1781.9,420.2h31.4v30.6h-31.4V420.2z M1814.2,420.2h31.4v30.6h-31.4V420.2z M1846.6,420.2h31.4v30.6h-31.4V420.2z
	 M1879,420.2h31.4v30.6H1879V420.2z M1911.3,420.2h31.4v30.6h-31.4V420.2z M1943.7,420.2h31.4v30.6h-31.4V420.2z M1976.1,420.2h31.4
	v30.6h-31.4V420.2z M2008.4,420.2h31.4v30.6h-31.4V420.2z M2040.8,420.2h31.4v30.6h-31.4V420.2z M2073.2,420.2h31.4v30.6h-31.4
	V420.2z M2105.5,420.2h31.4v30.6h-31.4V420.2z M2137.9,420.2h31.4v30.6h-31.4V420.2z M2170.2,420.2h31.4v30.6h-31.4V420.2z
	 M2202.6,420.2h31.4v30.6h-31.4V420.2z M2202.6,418.4v-30.6h31.4v30.6H2202.6z M2202.6,386v-30.6h31.4V386H2202.6z M2202.6,353.7
	v-30.6h31.4v30.6H2202.6z M2202.6,321.3v-30.6h31.4v30.6H2202.6z M2202.6,288.9v-30.6h31.4v30.6H2202.6z M2201.6,288.9h-31.4v-30.6
	h31.4V288.9z M2169.3,288.9h-31.4v-30.6h31.4V288.9z M2136.9,288.9h-31.4v-30.6h31.4V288.9z M2104.5,288.9h-31.4v-30.6h31.4V288.9z
	 M2072.2,288.9h-31.4v-30.6h31.4V288.9z M2039.8,288.9h-31.4v-30.6h31.4V288.9z M2007.4,288.9h-31.4v-30.6h31.4V288.9z
	 M1975.1,288.9h-31.4v-30.6h31.4V288.9z M1942.7,288.9h-31.4v-30.6h31.4V288.9z M1910.3,288.9H1879v-30.6h31.4V288.9z M1878,288.9
	h-31.4v-30.6h31.4V288.9z M1845.6,288.9h-31.4v-30.6h31.4V288.9z M1813.3,288.9h-31.4v-30.6h31.4V288.9z M1780.9,288.9h-31.4v-30.6
	h31.4V288.9z M1748.5,288.9h-31.4v-30.6h31.4V288.9z M1716.2,288.9h-31.4v-30.6h31.4V288.9z M1683.8,288.9h-31.4v-30.6h31.4V288.9z
	 M1651.4,288.9h-31.4v-30.6h31.4V288.9z M1619.1,288.9h-31.4v-30.6h31.4V288.9z M1586.7,288.9h-31.4v-30.6h31.4V288.9z
	 M1554.3,288.9H1523v-30.6h31.4V288.9z M1522,288.9h-31.4v-30.6h31.4V288.9z M1489.6,288.9h-31.4v-30.6h31.4V288.9z M1457.3,288.9
	h-31.4v-30.6h31.4V288.9z M1424.9,288.9h-31.4v-30.6h31.4V288.9z M1392.5,288.9h-31.4v-30.6h31.4V288.9z M1360.2,288.9h-31.4v-30.6
	h31.4V288.9z M1327.8,288.9h-31.4v-30.6h31.4V288.9z M1295.4,288.9h-31.4v-30.6h31.4V288.9z M1263.1,288.9h-31.4v-30.6h31.4V288.9z
	 M1230.7,288.9h-31.4v-30.6h31.4V288.9z M1198.3,288.9H1167v-30.6h31.4V288.9z M1166,288.9h-31.4v-30.6h31.4V288.9z M1133.6,288.9
	h-31.4v-30.6h31.4V288.9z M1101.3,288.9h-31.4v-30.6h31.4V288.9z M1068.9,288.9h-31.4v-30.6h31.4V288.9z M1036.5,288.9h-31.4v-30.6
	h31.4V288.9z M1004.2,288.9h-31.4v-30.6h31.4V288.9z M971.8,288.9h-31.4v-30.6h31.4V288.9z M939.4,288.9h-31.4v-30.6h31.4V288.9z
	 M907.1,288.9h-31.4v-30.6h31.4V288.9z M874.7,288.9h-31.4v-30.6h31.4V288.9z M842.3,288.9H811v-30.6h31.4V288.9z M810,288.9h-31.4
	v-30.6H810V288.9z M777.6,288.9h-31.4v-30.6h31.4V288.9z M745.2,288.9h-31.4v-30.6h31.4V288.9z M712.9,288.9h-31.4v-30.6h31.4V288.9
	z M680.5,288.9h-31.4v-30.6h31.4V288.9z M648.2,288.9h-31.4v-30.6h31.4V288.9z M615.8,288.9h-31.4v-30.6h31.4V288.9z M583.4,288.9
	h-31.4v-30.6h31.4V288.9z M551.1,288.9h-31.4v-30.6h31.4V288.9z M518.7,288.9h-31.4v-30.6h31.4V288.9z M486.3,288.9H455v-30.6h31.4
	V288.9z M454,288.9h-31.4v-30.6H454V288.9z M421.6,288.9h-31.4v-30.6h31.4V288.9z M389.2,288.9h-31.4v-30.6h31.4V288.9z
	 M356.9,288.9h-31.4v-30.6h31.4V288.9z M324.5,288.9h-31.4v-30.6h31.4V288.9z M292.2,288.9h-31.4v-30.6h31.4V288.9z M292.2,290.7
	v30.6h-31.4v-30.6H292.2z M292.2,323.1v30.6h-31.4v-30.6H292.2z M292.2,355.4V386h-31.4v-30.6H292.2z M292.2,387.8v30.6h-31.4v-30.6
	H292.2z M292.2,420.2v30.6h-31.4v-30.6H292.2z M292.2,452.5v30.6h-31.4v-30.6H292.2z M293.1,452.5h31.4v30.6h-31.4V452.5z
	 M325.5,452.5h31.4v30.6h-31.4V452.5z M357.9,452.5h31.4v30.6h-31.4V452.5z M390.2,452.5h31.4v30.6h-31.4V452.5z M422.6,452.5H454
	v30.6h-31.4V452.5z M455,452.5h31.4v30.6H455V452.5z M487.3,452.5h31.4v30.6h-31.4V452.5z M519.7,452.5h31.4v30.6h-31.4V452.5z
	 M552.1,452.5h31.4v30.6h-31.4V452.5z M584.4,452.5h31.4v30.6h-31.4V452.5z M616.8,452.5h31.4v30.6h-31.4V452.5z M649.1,452.5h31.4
	v30.6h-31.4V452.5z M681.5,452.5h31.4v30.6h-31.4V452.5z M713.9,452.5h31.4v30.6h-31.4V452.5z M746.2,452.5h31.4v30.6h-31.4V452.5z
	 M778.6,452.5H810v30.6h-31.4V452.5z M811,452.5h31.4v30.6H811V452.5z M843.3,452.5h31.4v30.6h-31.4V452.5z M875.7,452.5h31.4v30.6
	h-31.4V452.5z M908.1,452.5h31.4v30.6h-31.4V452.5z M940.4,452.5h31.4v30.6h-31.4V452.5z M972.8,452.5h31.4v30.6h-31.4V452.5z
	 M1005.1,452.5h31.4v30.6h-31.4V452.5z M1037.5,452.5h31.4v30.6h-31.4V452.5z M1069.9,452.5h31.4v30.6h-31.4V452.5z M1102.2,452.5
	h31.4v30.6h-31.4V452.5z M1134.6,452.5h31.4v30.6h-31.4V452.5z M1167,452.5h31.4v30.6H1167V452.5z M1199.3,452.5h31.4v30.6h-31.4
	V452.5z M1231.7,452.5h31.4v30.6h-31.4V452.5z M1264.1,452.5h31.4v30.6h-31.4V452.5z M1296.4,452.5h31.4v30.6h-31.4V452.5z
	 M1328.8,452.5h31.4v30.6h-31.4V452.5z M1361.1,452.5h31.4v30.6h-31.4V452.5z M1393.5,452.5h31.4v30.6h-31.4V452.5z M1425.9,452.5
	h31.4v30.6h-31.4V452.5z M1458.2,452.5h31.4v30.6h-31.4V452.5z M1490.6,452.5h31.4v30.6h-31.4V452.5z M1523,452.5h31.4v30.6H1523
	V452.5z M1555.3,452.5h31.4v30.6h-31.4V452.5z M1587.7,452.5h31.4v30.6h-31.4V452.5z M1620.1,452.5h31.4v30.6h-31.4V452.5z
	 M1652.4,452.5h31.4v30.6h-31.4V452.5z M1684.8,452.5h31.4v30.6h-31.4V452.5z M1717.2,452.5h31.4v30.6h-31.4V452.5z M1749.5,452.5
	h31.4v30.6h-31.4V452.5z M1781.9,452.5h31.4v30.6h-31.4V452.5z M1814.2,452.5h31.4v30.6h-31.4V452.5z M1846.6,452.5h31.4v30.6h-31.4
	V452.5z M1879,452.5h31.4v30.6H1879V452.5z M1911.3,452.5h31.4v30.6h-31.4V452.5z M1943.7,452.5h31.4v30.6h-31.4V452.5z
	 M1976.1,452.5h31.4v30.6h-31.4V452.5z M2008.4,452.5h31.4v30.6h-31.4V452.5z M2040.8,452.5h31.4v30.6h-31.4V452.5z M2073.2,452.5
	h31.4v30.6h-31.4V452.5z M2105.5,452.5h31.4v30.6h-31.4V452.5z M2137.9,452.5h31.4v30.6h-31.4V452.5z M2170.2,452.5h31.4v30.6h-31.4
	V452.5z M2202.6,452.5h31.4v30.6h-31.4V452.5z M2235,452.5h31.4v30.6H2235V452.5z M2235,450.8v-30.6h31.4v30.6H2235z M2235,418.4
	v-30.6h31.4v30.6H2235z M2235,386v-30.6h31.4V386H2235z M2235,353.7v-30.6h31.4v30.6H2235z M2235,321.3v-30.6h31.4v30.6H2235z
	 M2235,288.9v-30.6h31.4v30.6H2235z M2235,256.6V226h31.4v30.6H2235z M2234,256.6h-31.4V226h31.4V256.6z M2201.6,256.6h-31.4V226
	h31.4V256.6z M2169.3,256.6h-31.4V226h31.4V256.6z M2136.9,256.6h-31.4V226h31.4V256.6z M2104.5,256.6h-31.4V226h31.4V256.6z
	 M2072.2,256.6h-31.4V226h31.4V256.6z M2039.8,256.6h-31.4V226h31.4V256.6z M2007.4,256.6h-31.4V226h31.4V256.6z M1975.1,256.6
	h-31.4V226h31.4V256.6z M1942.7,256.6h-31.4V226h31.4V256.6z M1910.3,256.6H1879V226h31.4V256.6z M1878,256.6h-31.4V226h31.4V256.6z
	 M1845.6,256.6h-31.4V226h31.4V256.6z M1813.3,256.6h-31.4V226h31.4V256.6z M1780.9,256.6h-31.4V226h31.4V256.6z M1748.5,256.6
	h-31.4V226h31.4V256.6z M1716.2,256.6h-31.4V226h31.4V256.6z M1683.8,256.6h-31.4V226h31.4V256.6z M1651.4,256.6h-31.4V226h31.4
	V256.6z M1619.1,256.6h-31.4V226h31.4V256.6z M1586.7,256.6h-31.4V226h31.4V256.6z M1554.3,256.6H1523V226h31.4V256.6z M1522,256.6
	h-31.4V226h31.4V256.6z M1489.6,256.6h-31.4V226h31.4V256.6z M1457.3,256.6h-31.4V226h31.4V256.6z M1424.9,256.6h-31.4V226h31.4
	V256.6z M1392.5,256.6h-31.4V226h31.4V256.6z M1360.2,256.6h-31.4V226h31.4V256.6z M1327.8,256.6h-31.4V226h31.4V256.6z
	 M1295.4,256.6h-31.4V226h31.4V256.6z M1263.1,256.6h-31.4V226h31.4V256.6z M1230.7,256.6h-31.4V226h31.4V256.6z M1198.3,256.6H1167
	V226h31.4V256.6z M1166,256.6h-31.4V226h31.4V256.6z M1133.6,256.6h-31.4V226h31.4V256.6z M1101.3,256.6h-31.4V226h31.4V256.6z
	 M1068.9,256.6h-31.4V226h31.4V256.6z M1036.5,256.6h-31.4V226h31.4V256.6z M1004.2,256.6h-31.4V226h31.4V256.6z M971.8,256.6h-31.4
	V226h31.4V256.6z M939.4,256.6h-31.4V226h31.4V256.6z M907.1,256.6h-31.4V226h31.4V256.6z M874.7,256.6h-31.4V226h31.4V256.6z
	 M842.3,256.6H811V226h31.4V256.6z M810,256.6h-31.4V226H810V256.6z M777.6,256.6h-31.4V226h31.4V256.6z M745.2,256.6h-31.4V226
	h31.4V256.6z M712.9,256.6h-31.4V226h31.4V256.6z M680.5,256.6h-31.4V226h31.4V256.6z M648.2,256.6h-31.4V226h31.4V256.6z
	 M615.8,256.6h-31.4V226h31.4V256.6z M583.4,256.6h-31.4V226h31.4V256.6z M551.1,256.6h-31.4V226h31.4V256.6z M518.7,256.6h-31.4
	V226h31.4V256.6z M486.3,256.6H455V226h31.4V256.6z M454,256.6h-31.4V226H454V256.6z M421.6,256.6h-31.4V226h31.4V256.6z
	 M389.2,256.6h-31.4V226h31.4V256.6z M356.9,256.6h-31.4V226h31.4V256.6z M324.5,256.6h-31.4V226h31.4V256.6z M292.2,256.6h-31.4
	V226h31.4V256.6z M259.8,256.6h-31.4V226h31.4V256.6z M259.8,258.4v30.6h-31.4v-30.6H259.8z M259.8,290.7v30.6h-31.4v-30.6H259.8z
	 M259.8,323.1v30.6h-31.4v-30.6H259.8z M259.8,355.4V386h-31.4v-30.6H259.8z M259.8,387.8v30.6h-31.4v-30.6H259.8z M259.8,420.2
	v30.6h-31.4v-30.6H259.8z M259.8,452.5v30.6h-31.4v-30.6H259.8z M259.8,484.9v30.6h-31.4v-30.6H259.8z M260.8,484.9h31.4v30.6h-31.4
	V484.9z M293.1,484.9h31.4v30.6h-31.4V484.9z M325.5,484.9h31.4v30.6h-31.4V484.9z M357.9,484.9h31.4v30.6h-31.4V484.9z
	 M390.2,484.9h31.4v30.6h-31.4V484.9z M422.6,484.9H454v30.6h-31.4V484.9z M455,484.9h31.4v30.6H455V484.9z M487.3,484.9h31.4v30.6
	h-31.4V484.9z M519.7,484.9h31.4v30.6h-31.4V484.9z M552.1,484.9h31.4v30.6h-31.4V484.9z M584.4,484.9h31.4v30.6h-31.4V484.9z
	 M616.8,484.9h31.4v30.6h-31.4V484.9z M649.1,484.9h31.4v30.6h-31.4V484.9z M681.5,484.9h31.4v30.6h-31.4V484.9z M713.9,484.9h31.4
	v30.6h-31.4V484.9z M746.2,484.9h31.4v30.6h-31.4V484.9z M778.6,484.9H810v30.6h-31.4V484.9z M811,484.9h31.4v30.6H811V484.9z
	 M843.3,484.9h31.4v30.6h-31.4V484.9z M875.7,484.9h31.4v30.6h-31.4V484.9z M908.1,484.9h31.4v30.6h-31.4V484.9z M940.4,484.9h31.4
	v30.6h-31.4V484.9z M972.8,484.9h31.4v30.6h-31.4V484.9z M1005.1,484.9h31.4v30.6h-31.4V484.9z M1037.5,484.9h31.4v30.6h-31.4V484.9
	z M1069.9,484.9h31.4v30.6h-31.4V484.9z M1102.2,484.9h31.4v30.6h-31.4V484.9z M1134.6,484.9h31.4v30.6h-31.4V484.9z M1167,484.9
	h31.4v30.6H1167V484.9z M1199.3,484.9h31.4v30.6h-31.4V484.9z M1231.7,484.9h31.4v30.6h-31.4V484.9z M1264.1,484.9h31.4v30.6h-31.4
	V484.9z M1296.4,484.9h31.4v30.6h-31.4V484.9z M1328.8,484.9h31.4v30.6h-31.4V484.9z M1361.1,484.9h31.4v30.6h-31.4V484.9z
	 M1393.5,484.9h31.4v30.6h-31.4V484.9z M1425.9,484.9h31.4v30.6h-31.4V484.9z M1458.2,484.9h31.4v30.6h-31.4V484.9z M1490.6,484.9
	h31.4v30.6h-31.4V484.9z M1523,484.9h31.4v30.6H1523V484.9z M1555.3,484.9h31.4v30.6h-31.4V484.9z M1587.7,484.9h31.4v30.6h-31.4
	V484.9z M1620.1,484.9h31.4v30.6h-31.4V484.9z M1652.4,484.9h31.4v30.6h-31.4V484.9z M1684.8,484.9h31.4v30.6h-31.4V484.9z
	 M1717.2,484.9h31.4v30.6h-31.4V484.9z M1749.5,484.9h31.4v30.6h-31.4V484.9z M1781.9,484.9h31.4v30.6h-31.4V484.9z M1814.2,484.9
	h31.4v30.6h-31.4V484.9z M1846.6,484.9h31.4v30.6h-31.4V484.9z M1879,484.9h31.4v30.6H1879V484.9z M1911.3,484.9h31.4v30.6h-31.4
	V484.9z M1943.7,484.9h31.4v30.6h-31.4V484.9z M1976.1,484.9h31.4v30.6h-31.4V484.9z M2008.4,484.9h31.4v30.6h-31.4V484.9z
	 M2040.8,484.9h31.4v30.6h-31.4V484.9z M2073.2,484.9h31.4v30.6h-31.4V484.9z M2105.5,484.9h31.4v30.6h-31.4V484.9z M2137.9,484.9
	h31.4v30.6h-31.4V484.9z M2170.2,484.9h31.4v30.6h-31.4V484.9z M2202.6,484.9h31.4v30.6h-31.4V484.9z M2235,484.9h31.4v30.6H2235
	V484.9z M2267.3,484.9h31.4v30.6h-31.4V484.9z M2267.3,483.1v-30.6h31.4v30.6H2267.3z M2267.3,450.8v-30.6h31.4v30.6H2267.3z
	 M2267.3,418.4v-30.6h31.4v30.6H2267.3z M2267.3,386v-30.6h31.4V386H2267.3z M2267.3,353.7v-30.6h31.4v30.6H2267.3z M2267.3,321.3
	v-30.6h31.4v30.6H2267.3z M2267.3,288.9v-30.6h31.4v30.6H2267.3z M2267.3,256.6V226h31.4v30.6H2267.3z M2267.3,224.2v-30.6h31.4
	v30.6H2267.3z M2266.4,224.2H2235v-30.6h31.4V224.2z M2234,224.2h-31.4v-30.6h31.4V224.2z M2201.6,224.2h-31.4v-30.6h31.4V224.2z
	 M2169.3,224.2h-31.4v-30.6h31.4V224.2z M2136.9,224.2h-31.4v-30.6h31.4V224.2z M2104.5,224.2h-31.4v-30.6h31.4V224.2z
	 M2072.2,224.2h-31.4v-30.6h31.4V224.2z M2039.8,224.2h-31.4v-30.6h31.4V224.2z M2007.4,224.2h-31.4v-30.6h31.4V224.2z
	 M1975.1,224.2h-31.4v-30.6h31.4V224.2z M1942.7,224.2h-31.4v-30.6h31.4V224.2z M1910.3,224.2H1879v-30.6h31.4V224.2z M1878,224.2
	h-31.4v-30.6h31.4V224.2z M1845.6,224.2h-31.4v-30.6h31.4V224.2z M1813.3,224.2h-31.4v-30.6h31.4V224.2z M1780.9,224.2h-31.4v-30.6
	h31.4V224.2z M1748.5,224.2h-31.4v-30.6h31.4V224.2z M1716.2,224.2h-31.4v-30.6h31.4V224.2z M1683.8,224.2h-31.4v-30.6h31.4V224.2z
	 M1651.4,224.2h-31.4v-30.6h31.4V224.2z M1619.1,224.2h-31.4v-30.6h31.4V224.2z M1586.7,224.2h-31.4v-30.6h31.4V224.2z
	 M1554.3,224.2H1523v-30.6h31.4V224.2z M1522,224.2h-31.4v-30.6h31.4V224.2z M1489.6,224.2h-31.4v-30.6h31.4V224.2z M1457.3,224.2
	h-31.4v-30.6h31.4V224.2z M1424.9,224.2h-31.4v-30.6h31.4V224.2z M1392.5,224.2h-31.4v-30.6h31.4V224.2z M1360.2,224.2h-31.4v-30.6
	h31.4V224.2z M1327.8,224.2h-31.4v-30.6h31.4V224.2z M1295.4,224.2h-31.4v-30.6h31.4V224.2z M1263.1,224.2h-31.4v-30.6h31.4V224.2z
	 M1230.7,224.2h-31.4v-30.6h31.4V224.2z M1198.3,224.2H1167v-30.6h31.4V224.2z M1166,224.2h-31.4v-30.6h31.4V224.2z M1133.6,224.2
	h-31.4v-30.6h31.4V224.2z M1101.3,224.2h-31.4v-30.6h31.4V224.2z M1068.9,224.2h-31.4v-30.6h31.4V224.2z M1036.5,224.2h-31.4v-30.6
	h31.4V224.2z M1004.2,224.2h-31.4v-30.6h31.4V224.2z M971.8,224.2h-31.4v-30.6h31.4V224.2z M939.4,224.2h-31.4v-30.6h31.4V224.2z
	 M907.1,224.2h-31.4v-30.6h31.4V224.2z M874.7,224.2h-31.4v-30.6h31.4V224.2z M842.3,224.2H811v-30.6h31.4V224.2z M810,224.2h-31.4
	v-30.6H810V224.2z M777.6,224.2h-31.4v-30.6h31.4V224.2z M745.2,224.2h-31.4v-30.6h31.4V224.2z M712.9,224.2h-31.4v-30.6h31.4V224.2
	z M680.5,224.2h-31.4v-30.6h31.4V224.2z M648.2,224.2h-31.4v-30.6h31.4V224.2z M615.8,224.2h-31.4v-30.6h31.4V224.2z M583.4,224.2
	h-31.4v-30.6h31.4V224.2z M551.1,224.2h-31.4v-30.6h31.4V224.2z M518.7,224.2h-31.4v-30.6h31.4V224.2z M486.3,224.2H455v-30.6h31.4
	V224.2z M454,224.2h-31.4v-30.6H454V224.2z M421.6,224.2h-31.4v-30.6h31.4V224.2z M389.2,224.2h-31.4v-30.6h31.4V224.2z
	 M356.9,224.2h-31.4v-30.6h31.4V224.2z M324.5,224.2h-31.4v-30.6h31.4V224.2z M292.2,224.2h-31.4v-30.6h31.4V224.2z M259.8,224.2
	h-31.4v-30.6h31.4V224.2z M227.4,224.2H196v-30.6h31.4V224.2z M227.4,226v30.6H196V226H227.4z M227.4,258.4v30.6H196v-30.6H227.4z
	 M227.4,290.7v30.6H196v-30.6H227.4z M227.4,323.1v30.6H196v-30.6H227.4z M227.4,355.4V386H196v-30.6H227.4z M227.4,387.8v30.6H196
	v-30.6H227.4z M227.4,420.2v30.6H196v-30.6H227.4z M227.4,452.5v30.6H196v-30.6H227.4z M227.4,484.9v30.6H196v-30.6H227.4z
	 M227.4,517.3v30.6H196v-30.6H227.4z M228.4,517.3h31.4v30.6h-31.4V517.3z M260.8,517.3h31.4v30.6h-31.4V517.3z M293.1,517.3h31.4
	v30.6h-31.4V517.3z M325.5,517.3h31.4v30.6h-31.4V517.3z M357.9,517.3h31.4v30.6h-31.4V517.3z M390.2,517.3h31.4v30.6h-31.4V517.3z
	 M422.6,517.3H454v30.6h-31.4V517.3z M455,517.3h31.4v30.6H455V517.3z M487.3,517.3h31.4v30.6h-31.4V517.3z M519.7,517.3h31.4v30.6
	h-31.4V517.3z M552.1,517.3h31.4v30.6h-31.4V517.3z M584.4,517.3h31.4v30.6h-31.4V517.3z M616.8,517.3h31.4v30.6h-31.4V517.3z
	 M649.1,517.3h31.4v30.6h-31.4V517.3z M681.5,517.3h31.4v30.6h-31.4V517.3z M713.9,517.3h31.4v30.6h-31.4V517.3z M746.2,517.3h31.4
	v30.6h-31.4V517.3z M778.6,517.3H810v30.6h-31.4V517.3z M811,517.3h31.4v30.6H811V517.3z M843.3,517.3h31.4v30.6h-31.4V517.3z
	 M875.7,517.3h31.4v30.6h-31.4V517.3z M908.1,517.3h31.4v30.6h-31.4V517.3z M940.4,517.3h31.4v30.6h-31.4V517.3z M972.8,517.3h31.4
	v30.6h-31.4V517.3z M1005.1,517.3h31.4v30.6h-31.4V517.3z M1037.5,517.3h31.4v30.6h-31.4V517.3z M1069.9,517.3h31.4v30.6h-31.4
	V517.3z M1102.2,517.3h31.4v30.6h-31.4V517.3z M1134.6,517.3h31.4v30.6h-31.4V517.3z M1167,517.3h31.4v30.6H1167V517.3z
	 M1199.3,517.3h31.4v30.6h-31.4V517.3z M1231.7,517.3h31.4v30.6h-31.4V517.3z M1264.1,517.3h31.4v30.6h-31.4V517.3z M1296.4,517.3
	h31.4v30.6h-31.4V517.3z M1328.8,517.3h31.4v30.6h-31.4V517.3z M1361.1,517.3h31.4v30.6h-31.4V517.3z M1393.5,517.3h31.4v30.6h-31.4
	V517.3z M1425.9,517.3h31.4v30.6h-31.4V517.3z M1458.2,517.3h31.4v30.6h-31.4V517.3z M1490.6,517.3h31.4v30.6h-31.4V517.3z
	 M1523,517.3h31.4v30.6H1523V517.3z M1555.3,517.3h31.4v30.6h-31.4V517.3z M1587.7,517.3h31.4v30.6h-31.4V517.3z M1620.1,517.3h31.4
	v30.6h-31.4V517.3z M1652.4,517.3h31.4v30.6h-31.4V517.3z M1684.8,517.3h31.4v30.6h-31.4V517.3z M1717.2,517.3h31.4v30.6h-31.4
	V517.3z M1749.5,517.3h31.4v30.6h-31.4V517.3z M1781.9,517.3h31.4v30.6h-31.4V517.3z M1814.2,517.3h31.4v30.6h-31.4V517.3z
	 M1846.6,517.3h31.4v30.6h-31.4V517.3z M1879,517.3h31.4v30.6H1879V517.3z M1911.3,517.3h31.4v30.6h-31.4V517.3z M1943.7,517.3h31.4
	v30.6h-31.4V517.3z M1976.1,517.3h31.4v30.6h-31.4V517.3z M2008.4,517.3h31.4v30.6h-31.4V517.3z M2040.8,517.3h31.4v30.6h-31.4
	V517.3z M2073.2,517.3h31.4v30.6h-31.4V517.3z M2105.5,517.3h31.4v30.6h-31.4V517.3z M2137.9,517.3h31.4v30.6h-31.4V517.3z
	 M2170.2,517.3h31.4v30.6h-31.4V517.3z M2202.6,517.3h31.4v30.6h-31.4V517.3z M2235,517.3h31.4v30.6H2235V517.3z M2267.3,517.3h31.4
	v30.6h-31.4V517.3z M2299.7,517.3h31.4v30.6h-31.4V517.3z M2299.7,515.5v-30.6h31.4v30.6H2299.7z M2299.7,483.1v-30.6h31.4v30.6
	H2299.7z M2299.7,450.8v-30.6h31.4v30.6H2299.7z M2299.7,418.4v-30.6h31.4v30.6H2299.7z M2299.7,386v-30.6h31.4V386H2299.7z
	 M2299.7,353.7v-30.6h31.4v30.6H2299.7z M2299.7,321.3v-30.6h31.4v30.6H2299.7z M2299.7,288.9v-30.6h31.4v30.6H2299.7z
	 M2299.7,256.6V226h31.4v30.6H2299.7z M2299.7,224.2v-30.6h31.4v30.6H2299.7z M2299.7,191.9v-30.6h31.4v30.6H2299.7z M2298.7,191.9
	h-31.4v-30.6h31.4V191.9z M2266.4,191.9H2235v-30.6h31.4V191.9z M2234,191.9h-31.4v-30.6h31.4V191.9z M2201.6,191.9h-31.4v-30.6
	h31.4V191.9z M2169.3,191.9h-31.4v-30.6h31.4V191.9z M2136.9,191.9h-31.4v-30.6h31.4V191.9z M2104.5,191.9h-31.4v-30.6h31.4V191.9z
	 M2072.2,191.9h-31.4v-30.6h31.4V191.9z M2039.8,191.9h-31.4v-30.6h31.4V191.9z M2007.4,191.9h-31.4v-30.6h31.4V191.9z
	 M1975.1,191.9h-31.4v-30.6h31.4V191.9z M1942.7,191.9h-31.4v-30.6h31.4V191.9z M1910.3,191.9H1879v-30.6h31.4V191.9z M1878,191.9
	h-31.4v-30.6h31.4V191.9z M1845.6,191.9h-31.4v-30.6h31.4V191.9z M1813.3,191.9h-31.4v-30.6h31.4V191.9z M1780.9,191.9h-31.4v-30.6
	h31.4V191.9z M1748.5,191.9h-31.4v-30.6h31.4V191.9z M1716.2,191.9h-31.4v-30.6h31.4V191.9z M1683.8,191.9h-31.4v-30.6h31.4V191.9z
	 M1651.4,191.9h-31.4v-30.6h31.4V191.9z M1619.1,191.9h-31.4v-30.6h31.4V191.9z M1586.7,191.9h-31.4v-30.6h31.4V191.9z
	 M1554.3,191.9H1523v-30.6h31.4V191.9z M1522,191.9h-31.4v-30.6h31.4V191.9z M1489.6,191.9h-31.4v-30.6h31.4V191.9z M1457.3,191.9
	h-31.4v-30.6h31.4V191.9z M1424.9,191.9h-31.4v-30.6h31.4V191.9z M1392.5,191.9h-31.4v-30.6h31.4V191.9z M1360.2,191.9h-31.4v-30.6
	h31.4V191.9z M1327.8,191.9h-31.4v-30.6h31.4V191.9z M1295.4,191.9h-31.4v-30.6h31.4V191.9z M1263.1,191.9h-31.4v-30.6h31.4V191.9z
	 M1230.7,191.9h-31.4v-30.6h31.4V191.9z M1198.3,191.9H1167v-30.6h31.4V191.9z M1166,191.9h-31.4v-30.6h31.4V191.9z M1133.6,191.9
	h-31.4v-30.6h31.4V191.9z M1101.3,191.9h-31.4v-30.6h31.4V191.9z M1068.9,191.9h-31.4v-30.6h31.4V191.9z M1036.5,191.9h-31.4v-30.6
	h31.4V191.9z M1004.2,191.9h-31.4v-30.6h31.4V191.9z M971.8,191.9h-31.4v-30.6h31.4V191.9z M939.4,191.9h-31.4v-30.6h31.4V191.9z
	 M907.1,191.9h-31.4v-30.6h31.4V191.9z M874.7,191.9h-31.4v-30.6h31.4V191.9z M842.3,191.9H811v-30.6h31.4V191.9z M810,191.9h-31.4
	v-30.6H810V191.9z M777.6,191.9h-31.4v-30.6h31.4V191.9z M745.2,191.9h-31.4v-30.6h31.4V191.9z M712.9,191.9h-31.4v-30.6h31.4V191.9
	z M680.5,191.9h-31.4v-30.6h31.4V191.9z M648.2,191.9h-31.4v-30.6h31.4V191.9z M615.8,191.9h-31.4v-30.6h31.4V191.9z M583.4,191.9
	h-31.4v-30.6h31.4V191.9z M551.1,191.9h-31.4v-30.6h31.4V191.9z M518.7,191.9h-31.4v-30.6h31.4V191.9z M486.3,191.9H455v-30.6h31.4
	V191.9z M454,191.9h-31.4v-30.6H454V191.9z M421.6,191.9h-31.4v-30.6h31.4V191.9z M389.2,191.9h-31.4v-30.6h31.4V191.9z
	 M356.9,191.9h-31.4v-30.6h31.4V191.9z M324.5,191.9h-31.4v-30.6h31.4V191.9z M292.2,191.9h-31.4v-30.6h31.4V191.9z M259.8,191.9
	h-31.4v-30.6h31.4V191.9z M227.4,191.9H196v-30.6h31.4V191.9z M195.1,191.9h-31.4v-30.6h31.4V191.9z M195.1,193.6v30.6h-31.4v-30.6
	H195.1z M195.1,226v30.6h-31.4V226H195.1z M195.1,258.4v30.6h-31.4v-30.6H195.1z M195.1,290.7v30.6h-31.4v-30.6H195.1z M195.1,323.1
	v30.6h-31.4v-30.6H195.1z M195.1,355.4V386h-31.4v-30.6H195.1z M195.1,387.8v30.6h-31.4v-30.6H195.1z M195.1,420.2v30.6h-31.4v-30.6
	H195.1z M195.1,452.5v30.6h-31.4v-30.6H195.1z M195.1,484.9v30.6h-31.4v-30.6H195.1z M195.1,517.3v30.6h-31.4v-30.6H195.1z
	 M195.1,549.6v30.6h-31.4v-30.6H195.1z M196,549.6h31.4v30.6H196V549.6z M228.4,549.6h31.4v30.6h-31.4V549.6z M260.8,549.6h31.4
	v30.6h-31.4V549.6z M293.1,549.6h31.4v30.6h-31.4V549.6z M325.5,549.6h31.4v30.6h-31.4V549.6z M357.9,549.6h31.4v30.6h-31.4V549.6z
	 M390.2,549.6h31.4v30.6h-31.4V549.6z M422.6,549.6H454v30.6h-31.4V549.6z M455,549.6h31.4v30.6H455V549.6z M487.3,549.6h31.4v30.6
	h-31.4V549.6z M519.7,549.6h31.4v30.6h-31.4V549.6z M552.1,549.6h31.4v30.6h-31.4V549.6z M584.4,549.6h31.4v30.6h-31.4V549.6z
	 M616.8,549.6h31.4v30.6h-31.4V549.6z M649.1,549.6h31.4v30.6h-31.4V549.6z M681.5,549.6h31.4v30.6h-31.4V549.6z M713.9,549.6h31.4
	v30.6h-31.4V549.6z M746.2,549.6h31.4v30.6h-31.4V549.6z M778.6,549.6H810v30.6h-31.4V549.6z M811,549.6h31.4v30.6H811V549.6z
	 M843.3,549.6h31.4v30.6h-31.4V549.6z M875.7,549.6h31.4v30.6h-31.4V549.6z M908.1,549.6h31.4v30.6h-31.4V549.6z M940.4,549.6h31.4
	v30.6h-31.4V549.6z M972.8,549.6h31.4v30.6h-31.4V549.6z M1005.1,549.6h31.4v30.6h-31.4V549.6z M1037.5,549.6h31.4v30.6h-31.4V549.6
	z M1069.9,549.6h31.4v30.6h-31.4V549.6z M1102.2,549.6h31.4v30.6h-31.4V549.6z M1134.6,549.6h31.4v30.6h-31.4V549.6z M1167,549.6
	h31.4v30.6H1167V549.6z M1199.3,549.6h31.4v30.6h-31.4V549.6z M1231.7,549.6h31.4v30.6h-31.4V549.6z M1264.1,549.6h31.4v30.6h-31.4
	V549.6z M1296.4,549.6h31.4v30.6h-31.4V549.6z M1328.8,549.6h31.4v30.6h-31.4V549.6z M1361.1,549.6h31.4v30.6h-31.4V549.6z
	 M1393.5,549.6h31.4v30.6h-31.4V549.6z M1425.9,549.6h31.4v30.6h-31.4V549.6z M1458.2,549.6h31.4v30.6h-31.4V549.6z M1490.6,549.6
	h31.4v30.6h-31.4V549.6z M1523,549.6h31.4v30.6H1523V549.6z M1555.3,549.6h31.4v30.6h-31.4V549.6z M1587.7,549.6h31.4v30.6h-31.4
	V549.6z M1620.1,549.6h31.4v30.6h-31.4V549.6z M1652.4,549.6h31.4v30.6h-31.4V549.6z M1684.8,549.6h31.4v30.6h-31.4V549.6z
	 M1717.2,549.6h31.4v30.6h-31.4V549.6z M1749.5,549.6h31.4v30.6h-31.4V549.6z M1781.9,549.6h31.4v30.6h-31.4V549.6z M1814.2,549.6
	h31.4v30.6h-31.4V549.6z M1846.6,549.6h31.4v30.6h-31.4V549.6z M1879,549.6h31.4v30.6H1879V549.6z M1911.3,549.6h31.4v30.6h-31.4
	V549.6z M1943.7,549.6h31.4v30.6h-31.4V549.6z M1976.1,549.6h31.4v30.6h-31.4V549.6z M2008.4,549.6h31.4v30.6h-31.4V549.6z
	 M2040.8,549.6h31.4v30.6h-31.4V549.6z M2073.2,549.6h31.4v30.6h-31.4V549.6z M2105.5,549.6h31.4v30.6h-31.4V549.6z M2137.9,549.6
	h31.4v30.6h-31.4V549.6z M2170.2,549.6h31.4v30.6h-31.4V549.6z M2202.6,549.6h31.4v30.6h-31.4V549.6z M2235,549.6h31.4v30.6H2235
	V549.6z M2267.3,549.6h31.4v30.6h-31.4V549.6z M2299.7,549.6h31.4v30.6h-31.4V549.6z M2332.1,549.6h31.4v30.6h-31.4V549.6z
	 M2332.1,547.9v-30.6h31.4v30.6H2332.1z M2332.1,515.5v-30.6h31.4v30.6H2332.1z M2332.1,483.1v-30.6h31.4v30.6H2332.1z
	 M2332.1,450.8v-30.6h31.4v30.6H2332.1z M2332.1,418.4v-30.6h31.4v30.6H2332.1z M2332.1,386v-30.6h31.4V386H2332.1z M2332.1,353.7
	v-30.6h31.4v30.6H2332.1z M2332.1,321.3v-30.6h31.4v30.6H2332.1z M2332.1,288.9v-30.6h31.4v30.6H2332.1z M2332.1,256.6V226h31.4
	v30.6H2332.1z M2332.1,224.2v-30.6h31.4v30.6H2332.1z M2332.1,191.9v-30.6h31.4v30.6H2332.1z M2332.1,159.5v-30.6h31.4v30.6H2332.1z
	 M2331.1,159.5h-31.4v-30.6h31.4V159.5z M2298.7,159.5h-31.4v-30.6h31.4V159.5z M2266.4,159.5H2235v-30.6h31.4V159.5z M2234,159.5
	h-31.4v-30.6h31.4V159.5z M2201.6,159.5h-31.4v-30.6h31.4V159.5z M2169.3,159.5h-31.4v-30.6h31.4V159.5z M2136.9,159.5h-31.4v-30.6
	h31.4V159.5z M2104.5,159.5h-31.4v-30.6h31.4V159.5z M2072.2,159.5h-31.4v-30.6h31.4V159.5z M2039.8,159.5h-31.4v-30.6h31.4V159.5z
	 M2007.4,159.5h-31.4v-30.6h31.4V159.5z M1975.1,159.5h-31.4v-30.6h31.4V159.5z M1942.7,159.5h-31.4v-30.6h31.4V159.5z
	 M1910.3,159.5H1879v-30.6h31.4V159.5z M1878,159.5h-31.4v-30.6h31.4V159.5z M1845.6,159.5h-31.4v-30.6h31.4V159.5z M1813.3,159.5
	h-31.4v-30.6h31.4V159.5z M1780.9,159.5h-31.4v-30.6h31.4V159.5z M1748.5,159.5h-31.4v-30.6h31.4V159.5z M1716.2,159.5h-31.4v-30.6
	h31.4V159.5z M1683.8,159.5h-31.4v-30.6h31.4V159.5z M1651.4,159.5h-31.4v-30.6h31.4V159.5z M1619.1,159.5h-31.4v-30.6h31.4V159.5z
	 M1586.7,159.5h-31.4v-30.6h31.4V159.5z M1554.3,159.5H1523v-30.6h31.4V159.5z M1522,159.5h-31.4v-30.6h31.4V159.5z M1489.6,159.5
	h-31.4v-30.6h31.4V159.5z M1457.3,159.5h-31.4v-30.6h31.4V159.5z M1424.9,159.5h-31.4v-30.6h31.4V159.5z M1392.5,159.5h-31.4v-30.6
	h31.4V159.5z M1360.2,159.5h-31.4v-30.6h31.4V159.5z M1327.8,159.5h-31.4v-30.6h31.4V159.5z M1295.4,159.5h-31.4v-30.6h31.4V159.5z
	 M1263.1,159.5h-31.4v-30.6h31.4V159.5z M1230.7,159.5h-31.4v-30.6h31.4V159.5z M1198.3,159.5H1167v-30.6h31.4V159.5z M1166,159.5
	h-31.4v-30.6h31.4V159.5z M1133.6,159.5h-31.4v-30.6h31.4V159.5z M1101.3,159.5h-31.4v-30.6h31.4V159.5z M1068.9,159.5h-31.4v-30.6
	h31.4V159.5z M1036.5,159.5h-31.4v-30.6h31.4V159.5z M1004.2,159.5h-31.4v-30.6h31.4V159.5z M971.8,159.5h-31.4v-30.6h31.4V159.5z
	 M939.4,159.5h-31.4v-30.6h31.4V159.5z M907.1,159.5h-31.4v-30.6h31.4V159.5z M874.7,159.5h-31.4v-30.6h31.4V159.5z M842.3,159.5
	H811v-30.6h31.4V159.5z M810,159.5h-31.4v-30.6H810V159.5z M777.6,159.5h-31.4v-30.6h31.4V159.5z M745.2,159.5h-31.4v-30.6h31.4
	V159.5z M712.9,159.5h-31.4v-30.6h31.4V159.5z M680.5,159.5h-31.4v-30.6h31.4V159.5z M648.2,159.5h-31.4v-30.6h31.4V159.5z
	 M615.8,159.5h-31.4v-30.6h31.4V159.5z M583.4,159.5h-31.4v-30.6h31.4V159.5z M551.1,159.5h-31.4v-30.6h31.4V159.5z M518.7,159.5
	h-31.4v-30.6h31.4V159.5z M486.3,159.5H455v-30.6h31.4V159.5z M454,159.5h-31.4v-30.6H454V159.5z M421.6,159.5h-31.4v-30.6h31.4
	V159.5z M389.2,159.5h-31.4v-30.6h31.4V159.5z M356.9,159.5h-31.4v-30.6h31.4V159.5z M324.5,159.5h-31.4v-30.6h31.4V159.5z
	 M292.2,159.5h-31.4v-30.6h31.4V159.5z M259.8,159.5h-31.4v-30.6h31.4V159.5z M227.4,159.5H196v-30.6h31.4V159.5z M195.1,159.5
	h-31.4v-30.6h31.4V159.5z M162.7,159.5h-31.4v-30.6h31.4V159.5z M162.7,161.3v30.6h-31.4v-30.6H162.7z M162.7,193.6v30.6h-31.4
	v-30.6H162.7z M162.7,226v30.6h-31.4V226H162.7z M162.7,258.4v30.6h-31.4v-30.6H162.7z M162.7,290.7v30.6h-31.4v-30.6H162.7z
	 M162.7,323.1v30.6h-31.4v-30.6H162.7z M162.7,355.4V386h-31.4v-30.6H162.7z M162.7,387.8v30.6h-31.4v-30.6H162.7z M162.7,420.2
	v30.6h-31.4v-30.6H162.7z M162.7,452.5v30.6h-31.4v-30.6H162.7z M162.7,484.9v30.6h-31.4v-30.6H162.7z M162.7,517.3v30.6h-31.4
	v-30.6H162.7z M162.7,549.6v30.6h-31.4v-30.6H162.7z M162.7,582v30.6h-31.4V582H162.7z M163.7,582h31.4v30.6h-31.4V582z M196,582
	h31.4v30.6H196V582z M228.4,582h31.4v30.6h-31.4V582z M260.8,582h31.4v30.6h-31.4V582z M293.1,582h31.4v30.6h-31.4V582z M325.5,582
	h31.4v30.6h-31.4V582z M357.9,582h31.4v30.6h-31.4V582z M390.2,582h31.4v30.6h-31.4V582z M422.6,582H454v30.6h-31.4V582z M455,582
	h31.4v30.6H455V582z M487.3,582h31.4v30.6h-31.4V582z M519.7,582h31.4v30.6h-31.4V582z M552.1,582h31.4v30.6h-31.4V582z M584.4,582
	h31.4v30.6h-31.4V582z M616.8,582h31.4v30.6h-31.4V582z M649.1,582h31.4v30.6h-31.4V582z M681.5,582h31.4v30.6h-31.4V582z
	 M713.9,582h31.4v30.6h-31.4V582z M746.2,582h31.4v30.6h-31.4V582z M778.6,582H810v30.6h-31.4V582z M811,582h31.4v30.6H811V582z
	 M843.3,582h31.4v30.6h-31.4V582z M875.7,582h31.4v30.6h-31.4V582z M908.1,582h31.4v30.6h-31.4V582z M940.4,582h31.4v30.6h-31.4V582
	z M972.8,582h31.4v30.6h-31.4V582z M1005.1,582h31.4v30.6h-31.4V582z M1037.5,582h31.4v30.6h-31.4V582z M1069.9,582h31.4v30.6h-31.4
	V582z M1102.2,582h31.4v30.6h-31.4V582z M1134.6,582h31.4v30.6h-31.4V582z M1167,582h31.4v30.6H1167V582z M1199.3,582h31.4v30.6
	h-31.4V582z M1231.7,582h31.4v30.6h-31.4V582z M1264.1,582h31.4v30.6h-31.4V582z M1296.4,582h31.4v30.6h-31.4V582z M1328.8,582h31.4
	v30.6h-31.4V582z M1361.1,582h31.4v30.6h-31.4V582z M1393.5,582h31.4v30.6h-31.4V582z M1425.9,582h31.4v30.6h-31.4V582z M1458.2,582
	h31.4v30.6h-31.4V582z M1490.6,582h31.4v30.6h-31.4V582z M1523,582h31.4v30.6H1523V582z M1555.3,582h31.4v30.6h-31.4V582z
	 M1587.7,582h31.4v30.6h-31.4V582z M1620.1,582h31.4v30.6h-31.4V582z M1652.4,582h31.4v30.6h-31.4V582z M1684.8,582h31.4v30.6h-31.4
	V582z M1717.2,582h31.4v30.6h-31.4V582z M1749.5,582h31.4v30.6h-31.4V582z M1781.9,582h31.4v30.6h-31.4V582z M1814.2,582h31.4v30.6
	h-31.4V582z M1846.6,582h31.4v30.6h-31.4V582z M1879,582h31.4v30.6H1879V582z M1911.3,582h31.4v30.6h-31.4V582z M1943.7,582h31.4
	v30.6h-31.4V582z M1976.1,582h31.4v30.6h-31.4V582z M2008.4,582h31.4v30.6h-31.4V582z M2040.8,582h31.4v30.6h-31.4V582z M2073.2,582
	h31.4v30.6h-31.4V582z M2105.5,582h31.4v30.6h-31.4V582z M2137.9,582h31.4v30.6h-31.4V582z M2170.2,582h31.4v30.6h-31.4V582z
	 M2202.6,582h31.4v30.6h-31.4V582z M2235,582h31.4v30.6H2235V582z M2267.3,582h31.4v30.6h-31.4V582z M2299.7,582h31.4v30.6h-31.4
	V582z M2332.1,582h31.4v30.6h-31.4V582z M2364.4,582h31.4v30.6h-31.4V582z M2364.4,580.2v-30.6h31.4v30.6H2364.4z M2364.4,547.9
	v-30.6h31.4v30.6H2364.4z M2364.4,515.5v-30.6h31.4v30.6H2364.4z M2364.4,483.1v-30.6h31.4v30.6H2364.4z M2364.4,450.8v-30.6h31.4
	v30.6H2364.4z M2364.4,418.4v-30.6h31.4v30.6H2364.4z M2364.4,386v-30.6h31.4V386H2364.4z M2364.4,353.7v-30.6h31.4v30.6H2364.4z
	 M2364.4,321.3v-30.6h31.4v30.6H2364.4z M2364.4,288.9v-30.6h31.4v30.6H2364.4z M2364.4,256.6V226h31.4v30.6H2364.4z M2364.4,224.2
	v-30.6h31.4v30.6H2364.4z M2364.4,191.9v-30.6h31.4v30.6H2364.4z M2364.4,159.5v-30.6h31.4v30.6H2364.4z M2364.4,127.1V96.5h31.4
	v30.6H2364.4z M2363.4,127.1h-31.4V96.5h31.4V127.1z M2331.1,127.1h-31.4V96.5h31.4V127.1z M2298.7,127.1h-31.4V96.5h31.4V127.1z
	 M2266.4,127.1H2235V96.5h31.4V127.1z M2234,127.1h-31.4V96.5h31.4V127.1z M2201.6,127.1h-31.4V96.5h31.4V127.1z M2169.3,127.1
	h-31.4V96.5h31.4V127.1z M2136.9,127.1h-31.4V96.5h31.4V127.1z M2104.5,127.1h-31.4V96.5h31.4V127.1z M2072.2,127.1h-31.4V96.5h31.4
	V127.1z M2039.8,127.1h-31.4V96.5h31.4V127.1z M2007.4,127.1h-31.4V96.5h31.4V127.1z M1975.1,127.1h-31.4V96.5h31.4V127.1z
	 M1942.7,127.1h-31.4V96.5h31.4V127.1z M1910.3,127.1H1879V96.5h31.4V127.1z M1878,127.1h-31.4V96.5h31.4V127.1z M1845.6,127.1
	h-31.4V96.5h31.4V127.1z M1813.3,127.1h-31.4V96.5h31.4V127.1z M1780.9,127.1h-31.4V96.5h31.4V127.1z M1748.5,127.1h-31.4V96.5h31.4
	V127.1z M1716.2,127.1h-31.4V96.5h31.4V127.1z M1683.8,127.1h-31.4V96.5h31.4V127.1z M1651.4,127.1h-31.4V96.5h31.4V127.1z
	 M1619.1,127.1h-31.4V96.5h31.4V127.1z M1586.7,127.1h-31.4V96.5h31.4V127.1z M1554.3,127.1H1523V96.5h31.4V127.1z M1522,127.1
	h-31.4V96.5h31.4V127.1z M1489.6,127.1h-31.4V96.5h31.4V127.1z M1457.3,127.1h-31.4V96.5h31.4V127.1z M1424.9,127.1h-31.4V96.5h31.4
	V127.1z M1392.5,127.1h-31.4V96.5h31.4V127.1z M1360.2,127.1h-31.4V96.5h31.4V127.1z M1327.8,127.1h-31.4V96.5h31.4V127.1z
	 M1295.4,127.1h-31.4V96.5h31.4V127.1z M1263.1,127.1h-31.4V96.5h31.4V127.1z M1230.7,127.1h-31.4V96.5h31.4V127.1z M1198.3,127.1
	H1167V96.5h31.4V127.1z M1166,127.1h-31.4V96.5h31.4V127.1z M1133.6,127.1h-31.4V96.5h31.4V127.1z M1101.3,127.1h-31.4V96.5h31.4
	V127.1z M1068.9,127.1h-31.4V96.5h31.4V127.1z M1036.5,127.1h-31.4V96.5h31.4V127.1z M1004.2,127.1h-31.4V96.5h31.4V127.1z
	 M971.8,127.1h-31.4V96.5h31.4V127.1z M939.4,127.1h-31.4V96.5h31.4V127.1z M907.1,127.1h-31.4V96.5h31.4V127.1z M874.7,127.1h-31.4
	V96.5h31.4V127.1z M842.3,127.1H811V96.5h31.4V127.1z M810,127.1h-31.4V96.5H810V127.1z M777.6,127.1h-31.4V96.5h31.4V127.1z
	 M745.2,127.1h-31.4V96.5h31.4V127.1z M712.9,127.1h-31.4V96.5h31.4V127.1z M680.5,127.1h-31.4V96.5h31.4V127.1z M648.2,127.1h-31.4
	V96.5h31.4V127.1z M615.8,127.1h-31.4V96.5h31.4V127.1z M583.4,127.1h-31.4V96.5h31.4V127.1z M551.1,127.1h-31.4V96.5h31.4V127.1z
	 M518.7,127.1h-31.4V96.5h31.4V127.1z M486.3,127.1H455V96.5h31.4V127.1z M454,127.1h-31.4V96.5H454V127.1z M421.6,127.1h-31.4V96.5
	h31.4V127.1z M389.2,127.1h-31.4V96.5h31.4V127.1z M356.9,127.1h-31.4V96.5h31.4V127.1z M324.5,127.1h-31.4V96.5h31.4V127.1z
	 M292.2,127.1h-31.4V96.5h31.4V127.1z M259.8,127.1h-31.4V96.5h31.4V127.1z M227.4,127.1H196V96.5h31.4V127.1z M195.1,127.1h-31.4
	V96.5h31.4V127.1z M162.7,127.1h-31.4V96.5h31.4V127.1z M130.3,127.1H99V96.5h31.4V127.1z M130.3,128.9v30.6H99v-30.6H130.3z
	 M130.3,161.3v30.6H99v-30.6H130.3z M130.3,193.6v30.6H99v-30.6H130.3z M130.3,226v30.6H99V226H130.3z M130.3,258.4v30.6H99v-30.6
	H130.3z M130.3,290.7v30.6H99v-30.6H130.3z M130.3,323.1v30.6H99v-30.6H130.3z M130.3,355.4V386H99v-30.6H130.3z M130.3,387.8v30.6
	H99v-30.6H130.3z M130.3,420.2v30.6H99v-30.6H130.3z M130.3,452.5v30.6H99v-30.6H130.3z M130.3,484.9v30.6H99v-30.6H130.3z
	 M130.3,517.3v30.6H99v-30.6H130.3z M130.3,549.6v30.6H99v-30.6H130.3z M130.3,582v30.6H99V582H130.3z M130.3,614.4v30.6H99v-30.6
	H130.3z M131.3,614.4h31.4v30.6h-31.4V614.4z M163.7,614.4h31.4v30.6h-31.4V614.4z M196,614.4h31.4v30.6H196V614.4z M228.4,614.4
	h31.4v30.6h-31.4V614.4z M260.8,614.4h31.4v30.6h-31.4V614.4z M293.1,614.4h31.4v30.6h-31.4V614.4z M325.5,614.4h31.4v30.6h-31.4
	V614.4z M357.9,614.4h31.4v30.6h-31.4V614.4z M390.2,614.4h31.4v30.6h-31.4V614.4z M422.6,614.4H454v30.6h-31.4V614.4z M455,614.4
	h31.4v30.6H455V614.4z M487.3,614.4h31.4v30.6h-31.4V614.4z M519.7,614.4h31.4v30.6h-31.4V614.4z M552.1,614.4h31.4v30.6h-31.4
	V614.4z M584.4,614.4h31.4v30.6h-31.4V614.4z M616.8,614.4h31.4v30.6h-31.4V614.4z M649.1,614.4h31.4v30.6h-31.4V614.4z
	 M681.5,614.4h31.4v30.6h-31.4V614.4z M713.9,614.4h31.4v30.6h-31.4V614.4z M746.2,614.4h31.4v30.6h-31.4V614.4z M778.6,614.4H810
	v30.6h-31.4V614.4z M811,614.4h31.4v30.6H811V614.4z M843.3,614.4h31.4v30.6h-31.4V614.4z M875.7,614.4h31.4v30.6h-31.4V614.4z
	 M908.1,614.4h31.4v30.6h-31.4V614.4z M940.4,614.4h31.4v30.6h-31.4V614.4z M972.8,614.4h31.4v30.6h-31.4V614.4z M1005.1,614.4h31.4
	v30.6h-31.4V614.4z M1037.5,614.4h31.4v30.6h-31.4V614.4z M1069.9,614.4h31.4v30.6h-31.4V614.4z M1102.2,614.4h31.4v30.6h-31.4
	V614.4z M1134.6,614.4h31.4v30.6h-31.4V614.4z M1167,614.4h31.4v30.6H1167V614.4z M1199.3,614.4h31.4v30.6h-31.4V614.4z
	 M1231.7,614.4h31.4v30.6h-31.4V614.4z M1264.1,614.4h31.4v30.6h-31.4V614.4z M1296.4,614.4h31.4v30.6h-31.4V614.4z M1328.8,614.4
	h31.4v30.6h-31.4V614.4z M1361.1,614.4h31.4v30.6h-31.4V614.4z M1393.5,614.4h31.4v30.6h-31.4V614.4z M1425.9,614.4h31.4v30.6h-31.4
	V614.4z M1458.2,614.4h31.4v30.6h-31.4V614.4z M1490.6,614.4h31.4v30.6h-31.4V614.4z M1523,614.4h31.4v30.6H1523V614.4z
	 M1555.3,614.4h31.4v30.6h-31.4V614.4z M1587.7,614.4h31.4v30.6h-31.4V614.4z M1620.1,614.4h31.4v30.6h-31.4V614.4z M1652.4,614.4
	h31.4v30.6h-31.4V614.4z M1684.8,614.4h31.4v30.6h-31.4V614.4z M1717.2,614.4h31.4v30.6h-31.4V614.4z M1749.5,614.4h31.4v30.6h-31.4
	V614.4z M1781.9,614.4h31.4v30.6h-31.4V614.4z M1814.2,614.4h31.4v30.6h-31.4V614.4z M1846.6,614.4h31.4v30.6h-31.4V614.4z
	 M1879,614.4h31.4v30.6H1879V614.4z M1911.3,614.4h31.4v30.6h-31.4V614.4z M1943.7,614.4h31.4v30.6h-31.4V614.4z M1976.1,614.4h31.4
	v30.6h-31.4V614.4z M2008.4,614.4h31.4v30.6h-31.4V614.4z M2040.8,614.4h31.4v30.6h-31.4V614.4z M2073.2,614.4h31.4v30.6h-31.4
	V614.4z M2105.5,614.4h31.4v30.6h-31.4V614.4z M2137.9,614.4h31.4v30.6h-31.4V614.4z M2170.2,614.4h31.4v30.6h-31.4V614.4z
	 M2202.6,614.4h31.4v30.6h-31.4V614.4z M2235,614.4h31.4v30.6H2235V614.4z M2267.3,614.4h31.4v30.6h-31.4V614.4z M2299.7,614.4h31.4
	v30.6h-31.4V614.4z M2332.1,614.4h31.4v30.6h-31.4V614.4z M2364.4,614.4h31.4v30.6h-31.4V614.4z M2396.8,614.4h31.4v30.6h-31.4
	V614.4z M2396.8,612.6V582h31.4v30.6H2396.8z M2396.8,580.2v-30.6h31.4v30.6H2396.8z M2396.8,547.9v-30.6h31.4v30.6H2396.8z
	 M2396.8,515.5v-30.6h31.4v30.6H2396.8z M2396.8,483.1v-30.6h31.4v30.6H2396.8z M2396.8,450.8v-30.6h31.4v30.6H2396.8z
	 M2396.8,418.4v-30.6h31.4v30.6H2396.8z M2396.8,386v-30.6h31.4V386H2396.8z M2396.8,353.7v-30.6h31.4v30.6H2396.8z M2396.8,321.3
	v-30.6h31.4v30.6H2396.8z M2396.8,288.9v-30.6h31.4v30.6H2396.8z M2396.8,256.6V226h31.4v30.6H2396.8z M2396.8,224.2v-30.6h31.4
	v30.6H2396.8z M2396.8,191.9v-30.6h31.4v30.6H2396.8z M2396.8,159.5v-30.6h31.4v30.6H2396.8z M2396.8,127.1V96.5h31.4v30.6H2396.8z
	 M2396.8,94.8V64.2h31.4v30.6H2396.8z M2395.8,94.8h-31.4V64.2h31.4V94.8z M2363.4,94.8h-31.4V64.2h31.4V94.8z M2331.1,94.8h-31.4
	V64.2h31.4V94.8z M2298.7,94.8h-31.4V64.2h31.4V94.8z M2266.4,94.8H2235V64.2h31.4V94.8z M2234,94.8h-31.4V64.2h31.4V94.8z
	 M2201.6,94.8h-31.4V64.2h31.4V94.8z M2169.3,94.8h-31.4V64.2h31.4V94.8z M2136.9,94.8h-31.4V64.2h31.4V94.8z M2104.5,94.8h-31.4
	V64.2h31.4V94.8z M2072.2,94.8h-31.4V64.2h31.4V94.8z M2039.8,94.8h-31.4V64.2h31.4V94.8z M2007.4,94.8h-31.4V64.2h31.4V94.8z
	 M1975.1,94.8h-31.4V64.2h31.4V94.8z M1942.7,94.8h-31.4V64.2h31.4V94.8z M1910.3,94.8H1879V64.2h31.4V94.8z M1878,94.8h-31.4V64.2
	h31.4V94.8z M1845.6,94.8h-31.4V64.2h31.4V94.8z M1813.3,94.8h-31.4V64.2h31.4V94.8z M1780.9,94.8h-31.4V64.2h31.4V94.8z
	 M1748.5,94.8h-31.4V64.2h31.4V94.8z M1716.2,94.8h-31.4V64.2h31.4V94.8z M1683.8,94.8h-31.4V64.2h31.4V94.8z M1651.4,94.8h-31.4
	V64.2h31.4V94.8z M1619.1,94.8h-31.4V64.2h31.4V94.8z M1586.7,94.8h-31.4V64.2h31.4V94.8z M1554.3,94.8H1523V64.2h31.4V94.8z
	 M1522,94.8h-31.4V64.2h31.4V94.8z M1489.6,94.8h-31.4V64.2h31.4V94.8z M1457.3,94.8h-31.4V64.2h31.4V94.8z M1424.9,94.8h-31.4V64.2
	h31.4V94.8z M1392.5,94.8h-31.4V64.2h31.4V94.8z M1360.2,94.8h-31.4V64.2h31.4V94.8z M1327.8,94.8h-31.4V64.2h31.4V94.8z
	 M1295.4,94.8h-31.4V64.2h31.4V94.8z M1263.1,94.8h-31.4V64.2h31.4V94.8z M1230.7,94.8h-31.4V64.2h31.4V94.8z M1198.3,94.8H1167
	V64.2h31.4V94.8z M1166,94.8h-31.4V64.2h31.4V94.8z M1133.6,94.8h-31.4V64.2h31.4V94.8z M1101.3,94.8h-31.4V64.2h31.4V94.8z
	 M1068.9,94.8h-31.4V64.2h31.4V94.8z M1036.5,94.8h-31.4V64.2h31.4V94.8z M1004.2,94.8h-31.4V64.2h31.4V94.8z M971.8,94.8h-31.4
	V64.2h31.4V94.8z M939.4,94.8h-31.4V64.2h31.4V94.8z M907.1,94.8h-31.4V64.2h31.4V94.8z M874.7,94.8h-31.4V64.2h31.4V94.8z
	 M842.3,94.8H811V64.2h31.4V94.8z M810,94.8h-31.4V64.2H810V94.8z M777.6,94.8h-31.4V64.2h31.4V94.8z M745.2,94.8h-31.4V64.2h31.4
	V94.8z M712.9,94.8h-31.4V64.2h31.4V94.8z M680.5,94.8h-31.4V64.2h31.4V94.8z M648.2,94.8h-31.4V64.2h31.4V94.8z M615.8,94.8h-31.4
	V64.2h31.4V94.8z M583.4,94.8h-31.4V64.2h31.4V94.8z M551.1,94.8h-31.4V64.2h31.4V94.8z M518.7,94.8h-31.4V64.2h31.4V94.8z
	 M486.3,94.8H455V64.2h31.4V94.8z M454,94.8h-31.4V64.2H454V94.8z M421.6,94.8h-31.4V64.2h31.4V94.8z M389.2,94.8h-31.4V64.2h31.4
	V94.8z M356.9,94.8h-31.4V64.2h31.4V94.8z M324.5,94.8h-31.4V64.2h31.4V94.8z M292.2,94.8h-31.4V64.2h31.4V94.8z M259.8,94.8h-31.4
	V64.2h31.4V94.8z M227.4,94.8H196V64.2h31.4V94.8z M195.1,94.8h-31.4V64.2h31.4V94.8z M162.7,94.8h-31.4V64.2h31.4V94.8z
	 M130.3,94.8H99V64.2h31.4V94.8z M98,94.8H66.6V64.2H98V94.8z M98,96.5v30.6H66.6V96.5H98z M98,128.9v30.6H66.6v-30.6H98z M98,161.3
	v30.6H66.6v-30.6H98z M98,193.6v30.6H66.6v-30.6H98z M98,226v30.6H66.6V226H98z M98,258.4v30.6H66.6v-30.6H98z M98,290.7v30.6H66.6
	v-30.6H98z M98,323.1v30.6H66.6v-30.6H98z M98,355.4V386H66.6v-30.6H98z M98,387.8v30.6H66.6v-30.6H98z M98,420.2v30.6H66.6v-30.6
	H98z M98,452.5v30.6H66.6v-30.6H98z M98,484.9v30.6H66.6v-30.6H98z M98,517.3v30.6H66.6v-30.6H98z M98,549.6v30.6H66.6v-30.6H98z
	 M98,582v30.6H66.6V582H98z M98,614.4v30.6H66.6v-30.6H98z M98,646.7v30.6H66.6v-30.6H98z M99,646.7h31.4v30.6H99V646.7z
	 M131.3,646.7h31.4v30.6h-31.4V646.7z M163.7,646.7h31.4v30.6h-31.4V646.7z M196,646.7h31.4v30.6H196V646.7z M228.4,646.7h31.4v30.6
	h-31.4V646.7z M260.8,646.7h31.4v30.6h-31.4V646.7z M293.1,646.7h31.4v30.6h-31.4V646.7z M325.5,646.7h31.4v30.6h-31.4V646.7z
	 M357.9,646.7h31.4v30.6h-31.4V646.7z M390.2,646.7h31.4v30.6h-31.4V646.7z M422.6,646.7H454v30.6h-31.4V646.7z M455,646.7h31.4
	v30.6H455V646.7z M487.3,646.7h31.4v30.6h-31.4V646.7z M519.7,646.7h31.4v30.6h-31.4V646.7z M552.1,646.7h31.4v30.6h-31.4V646.7z
	 M584.4,646.7h31.4v30.6h-31.4V646.7z M616.8,646.7h31.4v30.6h-31.4V646.7z M649.1,646.7h31.4v30.6h-31.4V646.7z M681.5,646.7h31.4
	v30.6h-31.4V646.7z M713.9,646.7h31.4v30.6h-31.4V646.7z M746.2,646.7h31.4v30.6h-31.4V646.7z M778.6,646.7H810v30.6h-31.4V646.7z
	 M811,646.7h31.4v30.6H811V646.7z M843.3,646.7h31.4v30.6h-31.4V646.7z M875.7,646.7h31.4v30.6h-31.4V646.7z M908.1,646.7h31.4v30.6
	h-31.4V646.7z M940.4,646.7h31.4v30.6h-31.4V646.7z M972.8,646.7h31.4v30.6h-31.4V646.7z M1005.1,646.7h31.4v30.6h-31.4V646.7z
	 M1037.5,646.7h31.4v30.6h-31.4V646.7z M1069.9,646.7h31.4v30.6h-31.4V646.7z M1102.2,646.7h31.4v30.6h-31.4V646.7z M1134.6,646.7
	h31.4v30.6h-31.4V646.7z M1167,646.7h31.4v30.6H1167V646.7z M1199.3,646.7h31.4v30.6h-31.4V646.7z M1231.7,646.7h31.4v30.6h-31.4
	V646.7z M1264.1,646.7h31.4v30.6h-31.4V646.7z M1296.4,646.7h31.4v30.6h-31.4V646.7z M1328.8,646.7h31.4v30.6h-31.4V646.7z
	 M1361.1,646.7h31.4v30.6h-31.4V646.7z M1393.5,646.7h31.4v30.6h-31.4V646.7z M1425.9,646.7h31.4v30.6h-31.4V646.7z M1458.2,646.7
	h31.4v30.6h-31.4V646.7z M1490.6,646.7h31.4v30.6h-31.4V646.7z M1523,646.7h31.4v30.6H1523V646.7z M1555.3,646.7h31.4v30.6h-31.4
	V646.7z M1587.7,646.7h31.4v30.6h-31.4V646.7z M1620.1,646.7h31.4v30.6h-31.4V646.7z M1652.4,646.7h31.4v30.6h-31.4V646.7z
	 M1684.8,646.7h31.4v30.6h-31.4V646.7z M1717.2,646.7h31.4v30.6h-31.4V646.7z M1749.5,646.7h31.4v30.6h-31.4V646.7z M1781.9,646.7
	h31.4v30.6h-31.4V646.7z M1814.2,646.7h31.4v30.6h-31.4V646.7z M1846.6,646.7h31.4v30.6h-31.4V646.7z M1879,646.7h31.4v30.6H1879
	V646.7z M1911.3,646.7h31.4v30.6h-31.4V646.7z M1943.7,646.7h31.4v30.6h-31.4V646.7z M1976.1,646.7h31.4v30.6h-31.4V646.7z
	 M2008.4,646.7h31.4v30.6h-31.4V646.7z M2040.8,646.7h31.4v30.6h-31.4V646.7z M2073.2,646.7h31.4v30.6h-31.4V646.7z M2105.5,646.7
	h31.4v30.6h-31.4V646.7z M2137.9,646.7h31.4v30.6h-31.4V646.7z M2170.2,646.7h31.4v30.6h-31.4V646.7z M2202.6,646.7h31.4v30.6h-31.4
	V646.7z M2235,646.7h31.4v30.6H2235V646.7z M2267.3,646.7h31.4v30.6h-31.4V646.7z M2299.7,646.7h31.4v30.6h-31.4V646.7z
	 M2332.1,646.7h31.4v30.6h-31.4V646.7z M2364.4,646.7h31.4v30.6h-31.4V646.7z M2396.8,646.7h31.4v30.6h-31.4V646.7z M2429.2,646.7
	h31.4v30.6h-31.4V646.7z M2429.2,644.9v-30.6h31.4v30.6H2429.2z M2429.2,612.6V582h31.4v30.6H2429.2z M2429.2,580.2v-30.6h31.4v30.6
	H2429.2z M2429.2,547.9v-30.6h31.4v30.6H2429.2z M2429.2,515.5v-30.6h31.4v30.6H2429.2z M2429.2,483.1v-30.6h31.4v30.6H2429.2z
	 M2429.2,450.8v-30.6h31.4v30.6H2429.2z M2429.2,418.4v-30.6h31.4v30.6H2429.2z M2429.2,386v-30.6h31.4V386H2429.2z M2429.2,353.7
	v-30.6h31.4v30.6H2429.2z M2429.2,321.3v-30.6h31.4v30.6H2429.2z M2429.2,288.9v-30.6h31.4v30.6H2429.2z M2429.2,256.6V226h31.4
	v30.6H2429.2z M2429.2,224.2v-30.6h31.4v30.6H2429.2z M2429.2,191.9v-30.6h31.4v30.6H2429.2z M2429.2,159.5v-30.6h31.4v30.6H2429.2z
	 M2429.2,127.1V96.5h31.4v30.6H2429.2z M2429.2,94.8V64.2h31.4v30.6H2429.2z M2429.2,62.4V31.8h31.4v30.6H2429.2z M2428.2,62.4
	h-31.4V31.8h31.4V62.4z M2395.8,62.4h-31.4V31.8h31.4V62.4z M2363.4,62.4h-31.4V31.8h31.4V62.4z M2331.1,62.4h-31.4V31.8h31.4V62.4z
	 M2298.7,62.4h-31.4V31.8h31.4V62.4z M2266.4,62.4H2235V31.8h31.4V62.4z M2234,62.4h-31.4V31.8h31.4V62.4z M2201.6,62.4h-31.4V31.8
	h31.4V62.4z M2169.3,62.4h-31.4V31.8h31.4V62.4z M2136.9,62.4h-31.4V31.8h31.4V62.4z M2104.5,62.4h-31.4V31.8h31.4V62.4z
	 M2072.2,62.4h-31.4V31.8h31.4V62.4z M2039.8,62.4h-31.4V31.8h31.4V62.4z M2007.4,62.4h-31.4V31.8h31.4V62.4z M1975.1,62.4h-31.4
	V31.8h31.4V62.4z M1942.7,62.4h-31.4V31.8h31.4V62.4z M1910.3,62.4H1879V31.8h31.4V62.4z M1878,62.4h-31.4V31.8h31.4V62.4z
	 M1845.6,62.4h-31.4V31.8h31.4V62.4z M1813.3,62.4h-31.4V31.8h31.4V62.4z M1780.9,62.4h-31.4V31.8h31.4V62.4z M1748.5,62.4h-31.4
	V31.8h31.4V62.4z M1716.2,62.4h-31.4V31.8h31.4V62.4z M1683.8,62.4h-31.4V31.8h31.4V62.4z M1651.4,62.4h-31.4V31.8h31.4V62.4z
	 M1619.1,62.4h-31.4V31.8h31.4V62.4z M1586.7,62.4h-31.4V31.8h31.4V62.4z M1554.3,62.4H1523V31.8h31.4V62.4z M1522,62.4h-31.4V31.8
	h31.4V62.4z M1489.6,62.4h-31.4V31.8h31.4V62.4z M1457.3,62.4h-31.4V31.8h31.4V62.4z M1424.9,62.4h-31.4V31.8h31.4V62.4z
	 M1392.5,62.4h-31.4V31.8h31.4V62.4z M1360.2,62.4h-31.4V31.8h31.4V62.4z M1327.8,62.4h-31.4V31.8h31.4V62.4z M1295.4,62.4h-31.4
	V31.8h31.4V62.4z M1263.1,62.4h-31.4V31.8h31.4V62.4z M1230.7,62.4h-31.4V31.8h31.4V62.4z M1198.3,62.4H1167V31.8h31.4V62.4z
	 M1166,62.4h-31.4V31.8h31.4V62.4z M1133.6,62.4h-31.4V31.8h31.4V62.4z M1101.3,62.4h-31.4V31.8h31.4V62.4z M1068.9,62.4h-31.4V31.8
	h31.4V62.4z M1036.5,62.4h-31.4V31.8h31.4V62.4z M1004.2,62.4h-31.4V31.8h31.4V62.4z M971.8,62.4h-31.4V31.8h31.4V62.4z M939.4,62.4
	h-31.4V31.8h31.4V62.4z M907.1,62.4h-31.4V31.8h31.4V62.4z M874.7,62.4h-31.4V31.8h31.4V62.4z M842.3,62.4H811V31.8h31.4V62.4z
	 M810,62.4h-31.4V31.8H810V62.4z M777.6,62.4h-31.4V31.8h31.4V62.4z M745.2,62.4h-31.4V31.8h31.4V62.4z M712.9,62.4h-31.4V31.8h31.4
	V62.4z M680.5,62.4h-31.4V31.8h31.4V62.4z M648.2,62.4h-31.4V31.8h31.4V62.4z M615.8,62.4h-31.4V31.8h31.4V62.4z M583.4,62.4h-31.4
	V31.8h31.4V62.4z M551.1,62.4h-31.4V31.8h31.4V62.4z M518.7,62.4h-31.4V31.8h31.4V62.4z M486.3,62.4H455V31.8h31.4V62.4z M454,62.4
	h-31.4V31.8H454V62.4z M421.6,62.4h-31.4V31.8h31.4V62.4z M389.2,62.4h-31.4V31.8h31.4V62.4z M356.9,62.4h-31.4V31.8h31.4V62.4z
	 M324.5,62.4h-31.4V31.8h31.4V62.4z M292.2,62.4h-31.4V31.8h31.4V62.4z M259.8,62.4h-31.4V31.8h31.4V62.4z M227.4,62.4H196V31.8
	h31.4V62.4z M195.1,62.4h-31.4V31.8h31.4V62.4z M162.7,62.4h-31.4V31.8h31.4V62.4z M130.3,62.4H99V31.8h31.4V62.4z M98,62.4H66.6
	V31.8H98V62.4z M65.6,62.4H34.2V31.8h31.4V62.4z M65.6,64.2v30.6H34.2V64.2H65.6z M65.6,96.5v30.6H34.2V96.5H65.6z M65.6,128.9v30.6
	H34.2v-30.6H65.6z M65.6,161.3v30.6H34.2v-30.6H65.6z M65.6,193.6v30.6H34.2v-30.6H65.6z M65.6,226v30.6H34.2V226H65.6z M65.6,258.4
	v30.6H34.2v-30.6H65.6z M65.6,290.7v30.6H34.2v-30.6H65.6z M65.6,323.1v30.6H34.2v-30.6H65.6z M65.6,355.4V386H34.2v-30.6H65.6z
	 M65.6,387.8v30.6H34.2v-30.6H65.6z M65.6,420.2v30.6H34.2v-30.6H65.6z M65.6,452.5v30.6H34.2v-30.6H65.6z M65.6,484.9v30.6H34.2
	v-30.6H65.6z M65.6,517.3v30.6H34.2v-30.6H65.6z M65.6,549.6v30.6H34.2v-30.6H65.6z M65.6,582v30.6H34.2V582H65.6z M65.6,614.4v30.6
	H34.2v-30.6H65.6z M65.6,646.7v30.6H34.2v-30.6H65.6z M65.6,679.1v30.6H34.2v-30.6H65.6z M66.6,679.1H98v30.6H66.6V679.1z M99,679.1
	h31.4v30.6H99V679.1z M131.3,679.1h31.4v30.6h-31.4V679.1z M163.7,679.1h31.4v30.6h-31.4V679.1z M196,679.1h31.4v30.6H196V679.1z
	 M228.4,679.1h31.4v30.6h-31.4V679.1z M260.8,679.1h31.4v30.6h-31.4V679.1z M293.1,679.1h31.4v30.6h-31.4V679.1z M325.5,679.1h31.4
	v30.6h-31.4V679.1z M357.9,679.1h31.4v30.6h-31.4V679.1z M390.2,679.1h31.4v30.6h-31.4V679.1z M422.6,679.1H454v30.6h-31.4V679.1z
	 M455,679.1h31.4v30.6H455V679.1z M487.3,679.1h31.4v30.6h-31.4V679.1z M519.7,679.1h31.4v30.6h-31.4V679.1z M552.1,679.1h31.4v30.6
	h-31.4V679.1z M584.4,679.1h31.4v30.6h-31.4V679.1z M616.8,679.1h31.4v30.6h-31.4V679.1z M649.1,679.1h31.4v30.6h-31.4V679.1z
	 M681.5,679.1h31.4v30.6h-31.4V679.1z M713.9,679.1h31.4v30.6h-31.4V679.1z M746.2,679.1h31.4v30.6h-31.4V679.1z M778.6,679.1H810
	v30.6h-31.4V679.1z M811,679.1h31.4v30.6H811V679.1z M843.3,679.1h31.4v30.6h-31.4V679.1z M875.7,679.1h31.4v30.6h-31.4V679.1z
	 M908.1,679.1h31.4v30.6h-31.4V679.1z M940.4,679.1h31.4v30.6h-31.4V679.1z M972.8,679.1h31.4v30.6h-31.4V679.1z M1005.1,679.1h31.4
	v30.6h-31.4V679.1z M1037.5,679.1h31.4v30.6h-31.4V679.1z M1069.9,679.1h31.4v30.6h-31.4V679.1z M1102.2,679.1h31.4v30.6h-31.4
	V679.1z M1134.6,679.1h31.4v30.6h-31.4V679.1z M1167,679.1h31.4v30.6H1167V679.1z M1199.3,679.1h31.4v30.6h-31.4V679.1z
	 M1231.7,679.1h31.4v30.6h-31.4V679.1z M1264.1,679.1h31.4v30.6h-31.4V679.1z M1296.4,679.1h31.4v30.6h-31.4V679.1z M1328.8,679.1
	h31.4v30.6h-31.4V679.1z M1361.1,679.1h31.4v30.6h-31.4V679.1z M1393.5,679.1h31.4v30.6h-31.4V679.1z M1425.9,679.1h31.4v30.6h-31.4
	V679.1z M1458.2,679.1h31.4v30.6h-31.4V679.1z M1490.6,679.1h31.4v30.6h-31.4V679.1z M1523,679.1h31.4v30.6H1523V679.1z
	 M1555.3,679.1h31.4v30.6h-31.4V679.1z M1587.7,679.1h31.4v30.6h-31.4V679.1z M1620.1,679.1h31.4v30.6h-31.4V679.1z M1652.4,679.1
	h31.4v30.6h-31.4V679.1z M1684.8,679.1h31.4v30.6h-31.4V679.1z M1717.2,679.1h31.4v30.6h-31.4V679.1z M1749.5,679.1h31.4v30.6h-31.4
	V679.1z M1781.9,679.1h31.4v30.6h-31.4V679.1z M1814.2,679.1h31.4v30.6h-31.4V679.1z M1846.6,679.1h31.4v30.6h-31.4V679.1z
	 M1879,679.1h31.4v30.6H1879V679.1z M1911.3,679.1h31.4v30.6h-31.4V679.1z M1943.7,679.1h31.4v30.6h-31.4V679.1z M1976.1,679.1h31.4
	v30.6h-31.4V679.1z M2008.4,679.1h31.4v30.6h-31.4V679.1z M2040.8,679.1h31.4v30.6h-31.4V679.1z M2073.2,679.1h31.4v30.6h-31.4
	V679.1z M2105.5,679.1h31.4v30.6h-31.4V679.1z M2137.9,679.1h31.4v30.6h-31.4V679.1z M2170.2,679.1h31.4v30.6h-31.4V679.1z
	 M2202.6,679.1h31.4v30.6h-31.4V679.1z M2235,679.1h31.4v30.6H2235V679.1z M2267.3,679.1h31.4v30.6h-31.4V679.1z M2299.7,679.1h31.4
	v30.6h-31.4V679.1z M2332.1,679.1h31.4v30.6h-31.4V679.1z M2364.4,679.1h31.4v30.6h-31.4V679.1z M2396.8,679.1h31.4v30.6h-31.4
	V679.1z M2429.2,679.1h31.4v30.6h-31.4V679.1z M2461.5,679.1h31.4v30.6h-31.4V679.1z M2461.5,677.3v-30.6h31.4v30.6H2461.5z
	 M2461.5,644.9v-30.6h31.4v30.6H2461.5z M2461.5,612.6V582h31.4v30.6H2461.5z M2461.5,580.2v-30.6h31.4v30.6H2461.5z M2461.5,547.9
	v-30.6h31.4v30.6H2461.5z M2461.5,515.5v-30.6h31.4v30.6H2461.5z M2461.5,483.1v-30.6h31.4v30.6H2461.5z M2461.5,450.8v-30.6h31.4
	v30.6H2461.5z M2461.5,418.4v-30.6h31.4v30.6H2461.5z M2461.5,386v-30.6h31.4V386H2461.5z M2461.5,353.7v-30.6h31.4v30.6H2461.5z
	 M2461.5,321.3v-30.6h31.4v30.6H2461.5z M2461.5,288.9v-30.6h31.4v30.6H2461.5z M2461.5,256.6V226h31.4v30.6H2461.5z M2461.5,224.2
	v-30.6h31.4v30.6H2461.5z M2461.5,191.9v-30.6h31.4v30.6H2461.5z M2461.5,159.5v-30.6h31.4v30.6H2461.5z M2461.5,127.1V96.5h31.4
	v30.6H2461.5z M2461.5,94.8V64.2h31.4v30.6H2461.5z M2461.5,62.4V31.8h31.4v30.6H2461.5z M2461.5,30V-0.6h31.4V30H2461.5z
	 M2460.5,30h-31.4V-0.6h31.4V30z M2428.2,30h-31.4V-0.6h31.4V30z M2395.8,30h-31.4V-0.6h31.4V30z M2363.4,30h-31.4V-0.6h31.4V30z
	 M2331.1,30h-31.4V-0.6h31.4V30z M2298.7,30h-31.4V-0.6h31.4V30z M2266.4,30H2235V-0.6h31.4V30z M2234,30h-31.4V-0.6h31.4V30z
	 M2201.6,30h-31.4V-0.6h31.4V30z M2169.3,30h-31.4V-0.6h31.4V30z M2136.9,30h-31.4V-0.6h31.4V30z M2104.5,30h-31.4V-0.6h31.4V30z
	 M2072.2,30h-31.4V-0.6h31.4V30z M2039.8,30h-31.4V-0.6h31.4V30z M2007.4,30h-31.4V-0.6h31.4V30z M1975.1,30h-31.4V-0.6h31.4V30z
	 M1942.7,30h-31.4V-0.6h31.4V30z M1910.3,30H1879V-0.6h31.4V30z M1878,30h-31.4V-0.6h31.4V30z M1845.6,30h-31.4V-0.6h31.4V30z
	 M1813.3,30h-31.4V-0.6h31.4V30z M1780.9,30h-31.4V-0.6h31.4V30z M1748.5,30h-31.4V-0.6h31.4V30z M1716.2,30h-31.4V-0.6h31.4V30z
	 M1683.8,30h-31.4V-0.6h31.4V30z M1651.4,30h-31.4V-0.6h31.4V30z M1619.1,30h-31.4V-0.6h31.4V30z M1586.7,30h-31.4V-0.6h31.4V30z
	 M1554.3,30H1523V-0.6h31.4V30z M1522,30h-31.4V-0.6h31.4V30z M1489.6,30h-31.4V-0.6h31.4V30z M1457.3,30h-31.4V-0.6h31.4V30z
	 M1424.9,30h-31.4V-0.6h31.4V30z M1392.5,30h-31.4V-0.6h31.4V30z M1360.2,30h-31.4V-0.6h31.4V30z M1327.8,30h-31.4V-0.6h31.4V30z
	 M1295.4,30h-31.4V-0.6h31.4V30z M1263.1,30h-31.4V-0.6h31.4V30z M1230.7,30h-31.4V-0.6h31.4V30z M1198.3,30H1167V-0.6h31.4V30z
	 M1166,30h-31.4V-0.6h31.4V30z M1133.6,30h-31.4V-0.6h31.4V30z M1101.3,30h-31.4V-0.6h31.4V30z M1068.9,30h-31.4V-0.6h31.4V30z
	 M1036.5,30h-31.4V-0.6h31.4V30z M1004.2,30h-31.4V-0.6h31.4V30z M971.8,30h-31.4V-0.6h31.4V30z M939.4,30h-31.4V-0.6h31.4V30z
	 M907.1,30h-31.4V-0.6h31.4V30z M874.7,30h-31.4V-0.6h31.4V30z M842.3,30H811V-0.6h31.4V30z M810,30h-31.4V-0.6H810V30z M777.6,30
	h-31.4V-0.6h31.4V30z M745.2,30h-31.4V-0.6h31.4V30z M712.9,30h-31.4V-0.6h31.4V30z M680.5,30h-31.4V-0.6h31.4V30z M648.2,30h-31.4
	V-0.6h31.4V30z M615.8,30h-31.4V-0.6h31.4V30z M583.4,30h-31.4V-0.6h31.4V30z M551.1,30h-31.4V-0.6h31.4V30z M518.7,30h-31.4V-0.6
	h31.4V30z M486.3,30H455V-0.6h31.4V30z M454,30h-31.4V-0.6H454V30z M421.6,30h-31.4V-0.6h31.4V30z M389.2,30h-31.4V-0.6h31.4V30z
	 M356.9,30h-31.4V-0.6h31.4V30z M324.5,30h-31.4V-0.6h31.4V30z M292.2,30h-31.4V-0.6h31.4V30z M259.8,30h-31.4V-0.6h31.4V30z
	 M227.4,30H196V-0.6h31.4V30z M195.1,30h-31.4V-0.6h31.4V30z M162.7,30h-31.4V-0.6h31.4V30z M130.3,30H99V-0.6h31.4V30z M98,30H66.6
	V-0.6H98V30z M65.6,30H34.2V-0.6h31.4V30z M33.2,30H1.9V-0.6h31.4V30z M33.2,31.8v30.6H1.9V31.8H33.2z M33.2,64.2v30.6H1.9V64.2
	H33.2z M33.2,96.5v30.6H1.9V96.5H33.2z M33.2,128.9v30.6H1.9v-30.6H33.2z M33.2,161.3v30.6H1.9v-30.6H33.2z M33.2,193.6v30.6H1.9
	v-30.6H33.2z M33.2,226v30.6H1.9V226H33.2z M33.2,258.4v30.6H1.9v-30.6H33.2z M33.2,290.7v30.6H1.9v-30.6H33.2z M33.2,323.1v30.6
	H1.9v-30.6H33.2z M33.2,355.4V386H1.9v-30.6H33.2z M33.2,387.8v30.6H1.9v-30.6H33.2z M33.2,420.2v30.6H1.9v-30.6H33.2z M33.2,452.5
	v30.6H1.9v-30.6H33.2z M33.2,484.9v30.6H1.9v-30.6H33.2z M33.2,517.3v30.6H1.9v-30.6H33.2z M33.2,549.6v30.6H1.9v-30.6H33.2z
	 M33.2,582v30.6H1.9V582H33.2z M33.2,614.4v30.6H1.9v-30.6H33.2z M33.2,646.7v30.6H1.9v-30.6H33.2z M33.2,679.1v30.6H1.9v-30.6H33.2
	z M33.2,711.5V742H1.9v-30.6H33.2z M34.2,711.5h31.4V742H34.2V711.5z M66.6,711.5H98V742H66.6V711.5z M99,711.5h31.4V742H99V711.5z
	 M131.3,711.5h31.4V742h-31.4V711.5z M163.7,711.5h31.4V742h-31.4V711.5z M196,711.5h31.4V742H196V711.5z M228.4,711.5h31.4V742
	h-31.4V711.5z M260.8,711.5h31.4V742h-31.4V711.5z M293.1,711.5h31.4V742h-31.4V711.5z M325.5,711.5h31.4V742h-31.4V711.5z
	 M357.9,711.5h31.4V742h-31.4V711.5z M390.2,711.5h31.4V742h-31.4V711.5z M422.6,711.5H454V742h-31.4V711.5z M455,711.5h31.4V742
	H455V711.5z M487.3,711.5h31.4V742h-31.4V711.5z M519.7,711.5h31.4V742h-31.4V711.5z M552.1,711.5h31.4V742h-31.4V711.5z
	 M584.4,711.5h31.4V742h-31.4V711.5z M616.8,711.5h31.4V742h-31.4V711.5z M649.1,711.5h31.4V742h-31.4V711.5z M681.5,711.5h31.4V742
	h-31.4V711.5z M713.9,711.5h31.4V742h-31.4V711.5z M746.2,711.5h31.4V742h-31.4V711.5z M778.6,711.5H810V742h-31.4V711.5z
	 M811,711.5h31.4V742H811V711.5z M843.3,711.5h31.4V742h-31.4V711.5z M875.7,711.5h31.4V742h-31.4V711.5z M908.1,711.5h31.4V742
	h-31.4V711.5z M940.4,711.5h31.4V742h-31.4V711.5z M972.8,711.5h31.4V742h-31.4V711.5z M1005.1,711.5h31.4V742h-31.4V711.5z
	 M1037.5,711.5h31.4V742h-31.4V711.5z M1069.9,711.5h31.4V742h-31.4V711.5z M1102.2,711.5h31.4V742h-31.4V711.5z M1134.6,711.5h31.4
	V742h-31.4V711.5z M1167,711.5h31.4V742H1167V711.5z M1199.3,711.5h31.4V742h-31.4V711.5z M1231.7,711.5h31.4V742h-31.4V711.5z
	 M1264.1,711.5h31.4V742h-31.4V711.5z M1296.4,711.5h31.4V742h-31.4V711.5z M1328.8,711.5h31.4V742h-31.4V711.5z M1361.1,711.5h31.4
	V742h-31.4V711.5z M1393.5,711.5h31.4V742h-31.4V711.5z M1425.9,711.5h31.4V742h-31.4V711.5z M1458.2,711.5h31.4V742h-31.4V711.5z
	 M1490.6,711.5h31.4V742h-31.4V711.5z M1523,711.5h31.4V742H1523V711.5z M1555.3,711.5h31.4V742h-31.4V711.5z M1587.7,711.5h31.4
	V742h-31.4V711.5z M1620.1,711.5h31.4V742h-31.4V711.5z M1652.4,711.5h31.4V742h-31.4V711.5z M1684.8,711.5h31.4V742h-31.4V711.5z
	 M1717.2,711.5h31.4V742h-31.4V711.5z M1749.5,711.5h31.4V742h-31.4V711.5z M1781.9,711.5h31.4V742h-31.4V711.5z M1814.2,711.5h31.4
	V742h-31.4V711.5z M1846.6,711.5h31.4V742h-31.4V711.5z M1879,711.5h31.4V742H1879V711.5z M1911.3,711.5h31.4V742h-31.4V711.5z
	 M1943.7,711.5h31.4V742h-31.4V711.5z M1976.1,711.5h31.4V742h-31.4V711.5z M2008.4,711.5h31.4V742h-31.4V711.5z M2040.8,711.5h31.4
	V742h-31.4V711.5z M2073.2,711.5h31.4V742h-31.4V711.5z M2105.5,711.5h31.4V742h-31.4V711.5z M2137.9,711.5h31.4V742h-31.4V711.5z
	 M2170.2,711.5h31.4V742h-31.4V711.5z M2202.6,711.5h31.4V742h-31.4V711.5z M2235,711.5h31.4V742H2235V711.5z M2267.3,711.5h31.4
	V742h-31.4V711.5z M2299.7,711.5h31.4V742h-31.4V711.5z M2332.1,711.5h31.4V742h-31.4V711.5z M2364.4,711.5h31.4V742h-31.4V711.5z
	 M2396.8,711.5h31.4V742h-31.4V711.5z M2429.2,711.5h31.4V742h-31.4V711.5z M2461.5,711.5h31.4V742h-31.4V711.5z M2493.9,711.5h31.4
	V742h-31.4V711.5z M2493.9,709.7v-30.6h31.4v30.6H2493.9z M2493.9,677.3v-30.6h31.4v30.6H2493.9z M2493.9,644.9v-30.6h31.4v30.6
	H2493.9z M2493.9,612.6V582h31.4v30.6H2493.9z M2493.9,580.2v-30.6h31.4v30.6H2493.9z M2493.9,547.9v-30.6h31.4v30.6H2493.9z
	 M2493.9,515.5v-30.6h31.4v30.6H2493.9z M2493.9,483.1v-30.6h31.4v30.6H2493.9z M2493.9,450.8v-30.6h31.4v30.6H2493.9z
	 M2493.9,418.4v-30.6h31.4v30.6H2493.9z M2493.9,386v-30.6h31.4V386H2493.9z M2493.9,353.7v-30.6h31.4v30.6H2493.9z M2493.9,321.3
	v-30.6h31.4v30.6H2493.9z M2493.9,288.9v-30.6h31.4v30.6H2493.9z M2493.9,256.6V226h31.4v30.6H2493.9z M2493.9,224.2v-30.6h31.4
	v30.6H2493.9z M2493.9,191.9v-30.6h31.4v30.6H2493.9z M2493.9,159.5v-30.6h31.4v30.6H2493.9z M2493.9,127.1V96.5h31.4v30.6H2493.9z
	 M2493.9,94.8V64.2h31.4v30.6H2493.9z M2493.9,62.4V31.8h31.4v30.6H2493.9z M2493.9,30V-0.6h31.4V30H2493.9z M1.9,774.4v-30.6h31.4
	v30.6H1.9z M34.2,774.4v-30.6h31.4v30.6H34.2z M66.6,774.4v-30.6H98v30.6H66.6z M99,774.4v-30.6h31.4v30.6H99z M131.3,774.4v-30.6
	h31.4v30.6H131.3z M163.7,774.4v-30.6h31.4v30.6H163.7z M196,774.4v-30.6h31.4v30.6H196z M228.4,774.4v-30.6h31.4v30.6H228.4z
	 M260.8,774.4v-30.6h31.4v30.6H260.8z M293.1,774.4v-30.6h31.4v30.6H293.1z M325.5,774.4v-30.6h31.4v30.6H325.5z M357.9,774.4v-30.6
	h31.4v30.6H357.9z M390.2,774.4v-30.6h31.4v30.6H390.2z M422.6,774.4v-30.6H454v30.6H422.6z M455,774.4v-30.6h31.4v30.6H455z
	 M487.3,774.4v-30.6h31.4v30.6H487.3z M519.7,774.4v-30.6h31.4v30.6H519.7z M552.1,774.4v-30.6h31.4v30.6H552.1z M584.4,774.4v-30.6
	h31.4v30.6H584.4z M616.8,774.4v-30.6h31.4v30.6H616.8z M649.1,774.4v-30.6h31.4v30.6H649.1z M681.5,774.4v-30.6h31.4v30.6H681.5z
	 M713.9,774.4v-30.6h31.4v30.6H713.9z M746.2,774.4v-30.6h31.4v30.6H746.2z M778.6,774.4v-30.6H810v30.6H778.6z M811,774.4v-30.6
	h31.4v30.6H811z M843.3,774.4v-30.6h31.4v30.6H843.3z M875.7,774.4v-30.6h31.4v30.6H875.7z M908.1,774.4v-30.6h31.4v30.6H908.1z
	 M940.4,774.4v-30.6h31.4v30.6H940.4z M972.8,774.4v-30.6h31.4v30.6H972.8z M1005.1,774.4v-30.6h31.4v30.6H1005.1z M1037.5,774.4
	v-30.6h31.4v30.6H1037.5z M1069.9,774.4v-30.6h31.4v30.6H1069.9z M1102.2,774.4v-30.6h31.4v30.6H1102.2z M1134.6,774.4v-30.6h31.4
	v30.6H1134.6z M1167,774.4v-30.6h31.4v30.6H1167z M1199.3,774.4v-30.6h31.4v30.6H1199.3z M1231.7,774.4v-30.6h31.4v30.6H1231.7z
	 M1264.1,774.4v-30.6h31.4v30.6H1264.1z M1296.4,774.4v-30.6h31.4v30.6H1296.4z M1328.8,774.4v-30.6h31.4v30.6H1328.8z
	 M1361.1,774.4v-30.6h31.4v30.6H1361.1z M1393.5,774.4v-30.6h31.4v30.6H1393.5z M1425.9,774.4v-30.6h31.4v30.6H1425.9z
	 M1458.2,774.4v-30.6h31.4v30.6H1458.2z M1490.6,774.4v-30.6h31.4v30.6H1490.6z M1523,774.4v-30.6h31.4v30.6H1523z M1555.3,774.4
	v-30.6h31.4v30.6H1555.3z M1587.7,774.4v-30.6h31.4v30.6H1587.7z M1620.1,774.4v-30.6h31.4v30.6H1620.1z M1652.4,774.4v-30.6h31.4
	v30.6H1652.4z M1684.8,774.4v-30.6h31.4v30.6H1684.8z M1717.2,774.4v-30.6h31.4v30.6H1717.2z M1749.5,774.4v-30.6h31.4v30.6H1749.5z
	 M1781.9,774.4v-30.6h31.4v30.6H1781.9z M1814.2,774.4v-30.6h31.4v30.6H1814.2z M1846.6,774.4v-30.6h31.4v30.6H1846.6z M1879,774.4
	v-30.6h31.4v30.6H1879z M1911.3,774.4v-30.6h31.4v30.6H1911.3z M1943.7,774.4v-30.6h31.4v30.6H1943.7z M1976.1,774.4v-30.6h31.4
	v30.6H1976.1z M2008.4,774.4v-30.6h31.4v30.6H2008.4z M2040.8,774.4v-30.6h31.4v30.6H2040.8z M2073.2,774.4v-30.6h31.4v30.6H2073.2z
	 M2105.5,774.4v-30.6h31.4v30.6H2105.5z M2137.9,774.4v-30.6h31.4v30.6H2137.9z M2170.2,774.4v-30.6h31.4v30.6H2170.2z
	 M2202.6,774.4v-30.6h31.4v30.6H2202.6z M2235,774.4v-30.6h31.4v30.6H2235z M2267.3,774.4v-30.6h31.4v30.6H2267.3z M2299.7,774.4
	v-30.6h31.4v30.6H2299.7z M2332.1,774.4v-30.6h31.4v30.6H2332.1z M2364.4,774.4v-30.6h31.4v30.6H2364.4z M2396.8,774.4v-30.6h31.4
	v30.6H2396.8z M2429.2,774.4v-30.6h31.4v30.6H2429.2z M2461.5,774.4v-30.6h31.4v30.6H2461.5z M2493.9,774.4v-30.6h31.4v30.6H2493.9z
	 M2557.6,774.4h-31.4v-30.6h31.4V774.4z M2557.6,742h-31.4v-30.6h31.4V742z M2557.6,709.7h-31.4v-30.6h31.4V709.7z M2557.6,677.3
	h-31.4v-30.6h31.4V677.3z M2557.6,644.9h-31.4v-30.6h31.4V644.9z M2557.6,612.6h-31.4V582h31.4V612.6z M2557.6,580.2h-31.4v-30.6
	h31.4V580.2z M2557.6,547.9h-31.4v-30.6h31.4V547.9z M2557.6,515.5h-31.4v-30.6h31.4V515.5z M2557.6,483.1h-31.4v-30.6h31.4V483.1z
	 M2557.6,450.8h-31.4v-30.6h31.4V450.8z M2557.6,418.4h-31.4v-30.6h31.4V418.4z M2557.6,386h-31.4v-30.6h31.4V386z M2557.6,353.7
	h-31.4v-30.6h31.4V353.7z M2557.6,321.3h-31.4v-30.6h31.4V321.3z M2557.6,288.9h-31.4v-30.6h31.4V288.9z M2557.6,256.6h-31.4V226
	h31.4V256.6z M2557.6,224.2h-31.4v-30.6h31.4V224.2z M2557.6,191.9h-31.4v-30.6h31.4V191.9z M2557.6,159.5h-31.4v-30.6h31.4V159.5z
	 M2557.6,127.1h-31.4V96.5h31.4V127.1z M2557.6,94.8h-31.4V64.2h31.4V94.8z M2557.6,62.4h-31.4V31.8h31.4V62.4z M2557.6,30h-31.4
	V-0.6h31.4V30z"/>
</svg>
