<?xml version="1.0" encoding="utf-8"?>
<!-- Generator: Adobe Illustrator 18.0.0, SVG Export Plug-In . SVG Version: 6.00 Build 0)  -->
<!DOCTYPE svg PUBLIC "-//W3C//DTD SVG 1.1//EN" "http://www.w3.org/Graphics/SVG/1.1/DTD/svg11.dtd">
<svg version="1.1" id="Layer_1" xmlns="http://www.w3.org/2000/svg" xmlns:xlink="http://www.w3.org/1999/xlink" x="0px" y="0px"
	 viewBox="999.4 990.4 150 150" enable-background="new 999.4 990.4 150 150" xml:space="preserve">
<g transform="translate(0,-952.36218)">
	<path fill="#5CA1E9" d="M1106.1,1971.9c-1,0-1.9,0.6-2.5,1.4l-18.4,25.9c-1,1.5-0.7,3.5,0.8,4.5c0.5,0.4,1.2,0.6,1.8,0.6h7.6v50.8
		c0,1.8,1.5,3.2,3.2,3.2h15.1c1.8,0,3.2-1.5,3.2-3.2v-43.2c0-1.8-1.4-3.3-3.2-3.3s-3.3,1.4-3.3,3.2c0,0,0,0.1,0,0.1v40h-8.6V2001
		c0-1.8-1.5-3.2-3.2-3.2h-4.6l12.1-17.1l12.1,17.1h-4.6c-1.8,0-3.3,1.4-3.3,3.2c0,1.8,1.4,3.3,3.2,3.3c0,0,0.1,0,0.1,0h10.8
		c1.8,0,3.2-1.5,3.2-3.3c0-0.7-0.2-1.3-0.6-1.8l-18.4-25.9C1108.3,1972.3,1107.2,1971.8,1106.1,1971.9z M1066,2004.3
		c-1.7,0.2-2.9,1.6-2.9,3.2v47.5c0,1.8,1.5,3.2,3.2,3.2h15.1c1.8,0,3.2-1.5,3.2-3.2v-47.5c0-1.8-1.5-3.2-3.2-3.2h-15.1
		C1066.2,2004.3,1066.1,2004.3,1066,2004.3z M1069.5,2010.8h8.6v41.1h-8.6V2010.8z M1033.5,2015.1c-1.7,0.2-2.9,1.6-2.9,3.2v36.7
		c0,1.8,1.5,3.2,3.2,3.2h15.1c1.8,0,3.2-1.5,3.2-3.2v-36.7c0-1.8-1.5-3.2-3.2-3.2h-15.1C1033.8,2015.1,1033.7,2015.1,1033.5,2015.1z
		 M1037.1,2021.6h8.6v30.3h-8.6V2021.6z"/>
</g>
</svg>
