<?xml version="1.0" encoding="utf-8"?>
<!-- Generator: Adobe Illustrator 18.0.0, SVG Export Plug-In . SVG Version: 6.00 Build 0)  -->
<!DOCTYPE svg PUBLIC "-//W3C//DTD SVG 1.1//EN" "http://www.w3.org/Graphics/SVG/1.1/DTD/svg11.dtd">
<svg version="1.1" id="Layer_1" xmlns="http://www.w3.org/2000/svg" xmlns:xlink="http://www.w3.org/1999/xlink" x="0px" y="0px"
	 viewBox="999.4 990.4 150 150" enable-background="new 999.4 990.4 150 150" xml:space="preserve">
<g>
	<path fill="#FEC60E" d="M1091.4,1092.5v5.7c15.7,2.5,24.8,8,24.8,12.3c0,5.7-15.9,13.6-41.8,13.6c-25.9,0-41.8-7.9-41.8-13.6
		c0-4.5,10.2-10.5,27.5-12.7v-5.7c-17.8,2.2-33.2,8.5-33.2,18.4c0,12.5,24.5,19.3,47.5,19.3c23,0,47.5-6.8,47.5-19.3
		C1121.9,1101.1,1108.1,1095,1091.4,1092.5z"/>
	<path fill="#5CA2E9" d="M1056.9,1112.9v-27.3h-1.1c-5.2,0-9.4-4.2-9.4-9.4v-23c0-8.6,7-15.7,15.7-15.7h0.1c-2.1-2.7-3.2-6-3.2-9.5
		v-8.4c0-7.5,6.1-13.6,13.6-13.6h4.2c7.5,0,13.6,6.1,13.6,13.6v8.4c0,3.5-1.1,6.8-3.2,9.5h0.1c8.6,0,15.7,7,15.7,15.7v23
		c0,5.2-4.2,9.4-9.4,9.4h-1.1v21.3l0,1v5H1056.9z M1086.2,1106.9v-25.5h-23.1v25.5h8.5v-19.1h6.2v19.1H1086.2z M1093.5,1079.4
		c1.8,0,3.2-1.4,3.2-3.2v-23c0-4.2-2.9-7.9-7-9.1l-0.1,0c-0.6-0.2-1.1-0.3-1.7-0.3c0,0,0,0,0,0c-0.2,0-8.2-0.1-15.5-0.1
		c-9.5,0-11.6,0.1-12.1,0.2l-0.2,0c-4.4,0.9-7.6,4.8-7.6,9.2v23c0,1.8,1.4,3.2,3.2,3.2h1.1v-27.2h6.2v23h23.1v-23h6.2v27.2H1093.5z
		 M1065.2,1028.1c0,5.2,4.2,9.5,9.5,9.5c5.2,0,9.5-4.2,9.5-9.5v-8.4l0-0.8c-0.4-3.8-3.5-6.6-7.3-6.6h-4.2c-3.8,0-7,2.9-7.3,6.6
		l0,6.5V1028.1z"/>
</g>
</svg>
