<svg xmlns="http://www.w3.org/2000/svg" width="180" height="34" viewBox="0 0 180 34">
    <g fill="none" fill-rule="evenodd">
        <path fill="#FFF" d="M8.102 27.254h3.066c2.073 0 3.54-.267 4.402-.8.861-.534 1.292-1.425 1.292-2.674 0-1.384-.394-2.35-1.183-2.899-.788-.549-2.248-.823-4.38-.823H8.103v7.196zm0-13.085h1.752c2.16 0 3.643-.244 4.446-.733.802-.489 1.204-1.335 1.204-2.538 0-1.248-.376-2.124-1.128-2.629-.752-.503-2.215-.755-4.39-.755H8.101v6.655zM0 34V.971h8.781c3.62 0 6.15.12 7.588.361 1.438.24 2.675.654 3.712 1.241 1.183.677 2.084 1.583 2.704 2.719.62 1.135.931 2.447.931 3.936 0 1.88-.464 3.373-1.39 4.479-.928 1.105-2.406 1.944-4.435 2.515 2.278.181 4.059 1.004 5.343 2.47 1.285 1.467 1.927 3.427 1.927 5.878 0 1.76-.36 3.309-1.084 4.647a7.6 7.6 0 0 1-3.098 3.114c-1.095.601-2.446 1.03-4.051 1.286-1.607.255-4.234.383-7.884.383H0zM114.194 34V.971h19.354v7.242h-10.96v5.73h10.335v7.084h-10.336V26.6h10.961V34z"/>
        <g fill="#FEC60E">
            <path d="M156.542 12.853L147.56.971h-6.27L153.408 17 141.29 33.029h6.27l7.374-9.755L159.677 17zM156.234 9.504l4.411 6.039 4.27-5.845L171.29.97h-6.053l-4.592 6.285-4.591-6.285H150zM180 .971h-6.27l-8.982 11.882L161.613 17l3.135 4.147.38.503 1.285 1.699 7.317 9.68H180L167.883 17zM165.462 25.05l-.042-.057-1.748-2.392-3.027-4.144-4.033 5.52L150 33.03h6.054l4.591-6.285 4.592 6.285h6.053z"/>
        </g>
        <path fill="#FFF" d="M95.969.971v.014h-.096V21.23L81.173.971H72.58V34h8.592V13.593L95.969 34h8.547V.971H95.97zM47.903 25.906c-4.9 0-8.872-3.987-8.872-8.906 0-4.919 3.972-8.906 8.872-8.906S56.776 12.08 56.776 17c0 4.919-3.973 8.906-8.873 8.906m0-25.906C38.55 0 30.968 7.611 30.968 17s7.582 17 16.935 17c9.354 0 16.936-7.611 16.936-17S57.257 0 47.903 0"/>
    </g>
</svg>
